<svg width="251" height="321" viewBox="0 0 251 321" fill="none" xmlns="http://www.w3.org/2000/svg">
<path d="M219.338 120.523H232.151L226.049 96.5287H225.521L219.338 120.523ZM238.131 144.108L234.47 129.629H217.019L213.277 144.108H201.725L219.338 84.9209H233.005L250.618 144.108H238.131Z" fill="#EEE5DE"/>
<path d="M160.053 144.108H149.03V84.9209H160.053V111.869H160.665L181.282 84.9209H193.53L173.24 111.049L194.836 144.108H181.323L165.238 119.457L160.053 126.102V144.108Z" fill="#EEE5DE"/>
<path d="M108.321 144.11H72.2939V134.181H84.5072V96.3959H72.2939V86.4668H108.321V96.3959H96.1077V134.181H108.321V144.11Z" fill="#EEE5DE"/>
<path d="M17.6132 120.523H30.4264L24.3249 96.5287H23.7961L17.6132 120.523ZM36.406 144.108L32.745 129.629H15.2946L11.5523 144.108H0L17.6132 84.9209H31.2807L48.8938 144.108H36.406Z" fill="#EEE5DE"/>
<path d="M186.234 0.515625H197.69C206.332 10.0337 210.939 23.2533 210.939 38.3847C210.939 53.4754 206.332 66.6543 197.69 76.1724H186.234C195.04 62.8714 198.586 52.1331 198.586 38.3847C198.586 24.5956 195.04 13.8166 186.234 0.515625Z" fill="#EEE5DE"/>
<path d="M226 244H237.455C246.098 253.518 250.704 266.738 250.704 281.869C250.704 296.96 246.098 310.139 237.455 319.657H226C234.805 306.356 238.352 295.617 238.352 281.869C238.352 268.08 234.805 257.301 226 244Z" fill="#EEE5DE"/>
<path d="M36.7041 319.657L25.2488 319.657C16.6064 310.139 11.9999 296.919 11.9999 281.788C11.9999 266.697 16.6064 253.518 25.2488 244L36.7041 244C27.8986 257.301 24.352 268.039 24.352 281.788C24.352 295.577 27.8986 306.356 36.7041 319.657Z" fill="#EEE5DE"/>
<path d="M148.563 76.6861H137.398L165.064 0H176.514L148.563 76.6861Z" fill="#EEE5DE"/>
<path d="M111.164 320.686H100L127.666 244H139.115L111.164 320.686Z" fill="#EEE5DE"/>
<path d="M60.1641 320.686H49L76.6658 244H88.1151L60.1641 320.686Z" fill="#EEE5DE"/>
<path d="M82.9823 76.6861H71.8182L43.8672 0H55.3165L82.9823 76.6861Z" fill="#EEE5DE"/>
<path d="M226.115 229.686H214.951L187 153H198.449L226.115 229.686Z" fill="#EEE5DE"/>
<path d="M4.13867 38.3847C4.13867 23.2533 8.74524 10.0337 17.3877 0.515625H28.8429C20.0374 13.8166 16.4908 24.5956 16.4908 38.3847C16.4908 52.1331 20.0374 62.8714 28.8429 76.1724H17.3877C8.74524 66.6543 4.13867 53.4754 4.13867 38.3847Z" fill="#EEE5DE"/>
<path d="M44.6953 92.288C44.6953 97.5125 48.3372 100.979 53.7757 100.979C59.2142 100.979 62.9046 97.5125 62.9046 92.288C62.9046 87.0634 59.2142 83.5972 53.7757 83.5972C48.3372 83.5972 44.6953 87.0634 44.6953 92.288Z" fill="#EEE5DE"/>
<path d="M119.188 92.288C119.188 97.5125 122.829 100.979 128.268 100.979C133.706 100.979 137.397 97.5125 137.397 92.288C137.397 87.0634 133.706 83.5972 128.268 83.5972C122.829 83.5972 119.188 87.0634 119.188 92.288Z" fill="#EEE5DE"/>
</svg>
