<?xml version="1.0" encoding="UTF-8" standalone="no"?><svg xmlns="http://www.w3.org/2000/svg" xmlns:xlink="http://www.w3.org/1999/xlink" contentStyleType="text/css" height="1393px" preserveAspectRatio="none" style="width:1282px;height:1393px;background:#FFFFFF;" version="1.1" viewBox="0 0 1282 1393" width="1282px" zoomAndPan="magnify"><defs/><g><rect fill="none" height="26.2969" id="_title" style="stroke:none;stroke-width:1.0;" width="181" x="543.925" y="5"/><text fill="#000000" font-family="sans-serif" font-size="14" font-weight="bold" lengthAdjust="spacing" textLength="171" x="548.925" y="22.9951">Backend Architecture</text><!--MD5=[20739893a3f680369e2b8e6f2c345f86]
cluster API Gateway--><g id="cluster_API Gateway"><path d="M487.35,235.2969 L587.35,235.2969 A3.75,3.75 0 0 1 589.85,237.7969 L596.85,257.5938 L646.35,257.5938 A2.5,2.5 0 0 1 648.85,260.0938 L648.85,440.7969 A2.5,2.5 0 0 1 646.35,443.2969 L487.35,443.2969 A2.5,2.5 0 0 1 484.85,440.7969 L484.85,237.7969 A2.5,2.5 0 0 1 487.35,235.2969 " fill="none" style="stroke:#000000;stroke-width:1.5;"/><line style="stroke:#000000;stroke-width:1.5;" x1="484.85" x2="596.85" y1="257.5938" y2="257.5938"/><text fill="#000000" font-family="sans-serif" font-size="14" font-weight="bold" lengthAdjust="spacing" textLength="99" x="488.85" y="250.292">API Gateway</text></g><!--MD5=[f9c0b3d2143902d108985c4fe6361688]
cluster Agent Service--><g id="cluster_Agent Service"><path d="M260.35,1010.2969 L372.35,1010.2969 A3.75,3.75 0 0 1 374.85,1012.7969 L381.85,1032.5938 L623.35,1032.5938 A2.5,2.5 0 0 1 625.85,1035.0938 L625.85,1220.7969 A2.5,2.5 0 0 1 623.35,1223.2969 L260.35,1223.2969 A2.5,2.5 0 0 1 257.85,1220.7969 L257.85,1012.7969 A2.5,2.5 0 0 1 260.35,1010.2969 " fill="none" style="stroke:#000000;stroke-width:1.5;"/><line style="stroke:#000000;stroke-width:1.5;" x1="257.85" x2="381.85" y1="1032.5938" y2="1032.5938"/><text fill="#000000" font-family="sans-serif" font-size="14" font-weight="bold" lengthAdjust="spacing" textLength="111" x="261.85" y="1025.292">Agent Service</text></g><!--MD5=[76d5cce22ca198b5dc3a5ee7e14034a9]
cluster Curriculum Service--><g id="cluster_Curriculum Service"><path d="M488.35,568.2969 L639.35,568.2969 A3.75,3.75 0 0 1 641.85,570.7969 L648.85,590.5938 L663.35,590.5938 A2.5,2.5 0 0 1 665.85,593.0938 L665.85,803.7969 A2.5,2.5 0 0 1 663.35,806.2969 L488.35,806.2969 A2.5,2.5 0 0 1 485.85,803.7969 L485.85,570.7969 A2.5,2.5 0 0 1 488.35,568.2969 " fill="none" style="stroke:#000000;stroke-width:1.5;"/><line style="stroke:#000000;stroke-width:1.5;" x1="485.85" x2="648.85" y1="590.5938" y2="590.5938"/><text fill="#000000" font-family="sans-serif" font-size="14" font-weight="bold" lengthAdjust="spacing" textLength="150" x="489.85" y="583.292">Curriculum Service</text></g><!--MD5=[4771646b54a3ec80f5e29129ccd4b900]
cluster User Service--><g id="cluster_User Service"><path d="M1067.35,568.2969 L1169.35,568.2969 A3.75,3.75 0 0 1 1171.85,570.7969 L1178.85,590.5938 L1226.35,590.5938 A2.5,2.5 0 0 1 1228.85,593.0938 L1228.85,953.7969 A2.5,2.5 0 0 1 1226.35,956.2969 L1067.35,956.2969 A2.5,2.5 0 0 1 1064.85,953.7969 L1064.85,570.7969 A2.5,2.5 0 0 1 1067.35,568.2969 " fill="none" style="stroke:#000000;stroke-width:1.5;"/><line style="stroke:#000000;stroke-width:1.5;" x1="1064.85" x2="1178.85" y1="590.5938" y2="590.5938"/><text fill="#000000" font-family="sans-serif" font-size="14" font-weight="bold" lengthAdjust="spacing" textLength="101" x="1068.85" y="583.292">User Service</text></g><!--MD5=[4adc20ff935032db8738ac4a52234fc3]
cluster MilvusVectorStore--><g id="cluster_MilvusVectorStore"><path d="M212.85,1266.2969 C212.85,1256.2969 413.35,1256.2969 413.35,1256.2969 C413.35,1256.2969 613.85,1256.2969 613.85,1266.2969 L613.85,1366.2969 C613.85,1376.2969 413.35,1376.2969 413.35,1376.2969 C413.35,1376.2969 212.85,1376.2969 212.85,1366.2969 L212.85,1266.2969 " fill="none" style="stroke:#181818;stroke-width:1.0;"/><path d="M212.85,1266.2969 C212.85,1276.2969 413.35,1276.2969 413.35,1276.2969 C413.35,1276.2969 613.85,1276.2969 613.85,1266.2969 " fill="none" style="stroke:#181818;stroke-width:1.0;"/><text fill="#000000" font-family="sans-serif" font-size="14" font-weight="bold" lengthAdjust="spacing" textLength="145" x="340.85" y="1291.292">MilvusVectorStore</text></g><!--MD5=[0f6e84fbb62de67079327d203d8ce838]
cluster Curriculum--><g id="cluster_Curriculum"><path d="M323.85,849.2969 C323.85,839.2969 406.85,839.2969 406.85,839.2969 C406.85,839.2969 489.85,839.2969 489.85,849.2969 L489.85,949.2969 C489.85,959.2969 406.85,959.2969 406.85,959.2969 C406.85,959.2969 323.85,959.2969 323.85,949.2969 L323.85,849.2969 " fill="none" style="stroke:#181818;stroke-width:1.0;"/><path d="M323.85,849.2969 C323.85,859.2969 406.85,859.2969 406.85,859.2969 C406.85,859.2969 489.85,859.2969 489.85,849.2969 " fill="none" style="stroke:#181818;stroke-width:1.0;"/><text fill="#000000" font-family="sans-serif" font-size="14" font-weight="bold" lengthAdjust="spacing" textLength="86" x="363.85" y="874.292">Curriculum</text></g><!--MD5=[d0083cf0b2d9f17e335f85bf9624e57e]
cluster User--><g id="cluster_User"><path d="M1095.85,1002.2969 C1095.85,992.2969 1146.85,992.2969 1146.85,992.2969 C1146.85,992.2969 1197.85,992.2969 1197.85,1002.2969 L1197.85,1102.2969 C1197.85,1112.2969 1146.85,1112.2969 1146.85,1112.2969 C1146.85,1112.2969 1095.85,1112.2969 1095.85,1102.2969 L1095.85,1002.2969 " fill="none" style="stroke:#181818;stroke-width:1.0;"/><path d="M1095.85,1002.2969 C1095.85,1012.2969 1146.85,1012.2969 1146.85,1012.2969 C1146.85,1012.2969 1197.85,1012.2969 1197.85,1002.2969 " fill="none" style="stroke:#181818;stroke-width:1.0;"/><text fill="#000000" font-family="sans-serif" font-size="14" font-weight="bold" lengthAdjust="spacing" textLength="37" x="1128.35" y="1027.292">User</text></g><path d="M538.85,43.2969 L578.85,43.2969 A3.75,3.75 0 0 1 581.35,45.7969 L588.35,65.5938 L592.85,65.5938 A2.5,2.5 0 0 1 595.35,68.0938 L595.35,93.3906 A2.5,2.5 0 0 1 592.85,95.8906 L538.85,95.8906 A2.5,2.5 0 0 1 536.35,93.3906 L536.35,45.7969 A2.5,2.5 0 0 1 538.85,43.2969 " fill="#F1F1F1" style="stroke:#181818;stroke-width:0.5;"/><line style="stroke:#181818;stroke-width:0.5;" x1="536.35" x2="588.35" y1="65.5938" y2="65.5938"/><text fill="#000000" font-family="sans-serif" font-size="14" lengthAdjust="spacing" textLength="39" x="540.35" y="58.292">Client</text><!--MD5=[d882df5981bf0da50176e76fa31f5fea]
class ChatController--><g id="elem_ChatController"><rect codeLine="8" fill="#F1F1F1" height="48" id="ChatController" rx="2.5" ry="2.5" style="stroke:#181818;stroke-width:0.5;" width="131" x="501.35" y="270.2969"/><ellipse cx="516.35" cy="286.2969" fill="#ADD1B2" rx="11" ry="11" style="stroke:#181818;stroke-width:1.0;"/><path d="M519.3188,291.9375 Q518.7406,292.2344 518.1,292.375 Q517.4594,292.5313 516.7563,292.5313 Q514.2563,292.5313 512.9281,290.8906 Q511.6156,289.2344 511.6156,286.1094 Q511.6156,282.9844 512.9281,281.3281 Q514.2563,279.6719 516.7563,279.6719 Q517.4594,279.6719 518.1,279.8281 Q518.7563,279.9844 519.3188,280.2813 L519.3188,283 Q518.6938,282.4219 518.1,282.1563 Q517.5063,281.875 516.8813,281.875 Q515.5375,281.875 514.85,282.9531 Q514.1625,284.0156 514.1625,286.1094 Q514.1625,288.2031 514.85,289.2813 Q515.5375,290.3438 516.8813,290.3438 Q517.5063,290.3438 518.1,290.0781 Q518.6938,289.7969 519.3188,289.2188 L519.3188,291.9375 Z " fill="#000000"/><text fill="#000000" font-family="sans-serif" font-size="14" lengthAdjust="spacing" textLength="99" x="530.35" y="291.1436">ChatController</text><line style="stroke:#181818;stroke-width:0.5;" x1="502.35" x2="631.35" y1="302.2969" y2="302.2969"/><line style="stroke:#181818;stroke-width:0.5;" x1="502.35" x2="631.35" y1="310.2969" y2="310.2969"/></g><!--MD5=[34b2f0f7407082ec51a775b6d59284b9]
class ChatService--><g id="elem_ChatService"><rect codeLine="9" fill="#F1F1F1" height="48" id="ChatService" rx="2.5" ry="2.5" style="stroke:#181818;stroke-width:0.5;" width="114" x="509.85" y="379.2969"/><ellipse cx="524.85" cy="395.2969" fill="#ADD1B2" rx="11" ry="11" style="stroke:#181818;stroke-width:1.0;"/><path d="M527.8188,400.9375 Q527.2406,401.2344 526.6,401.375 Q525.9594,401.5313 525.2563,401.5313 Q522.7563,401.5313 521.4281,399.8906 Q520.1156,398.2344 520.1156,395.1094 Q520.1156,391.9844 521.4281,390.3281 Q522.7563,388.6719 525.2563,388.6719 Q525.9594,388.6719 526.6,388.8281 Q527.2563,388.9844 527.8188,389.2813 L527.8188,392 Q527.1938,391.4219 526.6,391.1563 Q526.0063,390.875 525.3813,390.875 Q524.0375,390.875 523.35,391.9531 Q522.6625,393.0156 522.6625,395.1094 Q522.6625,397.2031 523.35,398.2813 Q524.0375,399.3438 525.3813,399.3438 Q526.0063,399.3438 526.6,399.0781 Q527.1938,398.7969 527.8188,398.2188 L527.8188,400.9375 Z " fill="#000000"/><text fill="#000000" font-family="sans-serif" font-size="14" lengthAdjust="spacing" textLength="82" x="538.85" y="400.1436">ChatService</text><line style="stroke:#181818;stroke-width:0.5;" x1="510.85" x2="622.85" y1="411.2969" y2="411.2969"/><line style="stroke:#181818;stroke-width:0.5;" x1="510.85" x2="622.85" y1="419.2969" y2="419.2969"/></g><!--MD5=[9e19163b4ff240ecb98498044fd22701]
class FlaskApp--><g id="elem_FlaskApp"><rect codeLine="13" fill="#F1F1F1" height="48" id="FlaskApp" rx="2.5" ry="2.5" style="stroke:#181818;stroke-width:0.5;" width="94" x="366.85" y="1045.2969"/><ellipse cx="381.85" cy="1061.2969" fill="#ADD1B2" rx="11" ry="11" style="stroke:#181818;stroke-width:1.0;"/><path d="M384.8188,1066.9375 Q384.2406,1067.2344 383.6,1067.375 Q382.9594,1067.5313 382.2563,1067.5313 Q379.7563,1067.5313 378.4281,1065.8906 Q377.1156,1064.2344 377.1156,1061.1094 Q377.1156,1057.9844 378.4281,1056.3281 Q379.7563,1054.6719 382.2563,1054.6719 Q382.9594,1054.6719 383.6,1054.8281 Q384.2563,1054.9844 384.8188,1055.2813 L384.8188,1058 Q384.1938,1057.4219 383.6,1057.1563 Q383.0063,1056.875 382.3813,1056.875 Q381.0375,1056.875 380.35,1057.9531 Q379.6625,1059.0156 379.6625,1061.1094 Q379.6625,1063.2031 380.35,1064.2813 Q381.0375,1065.3438 382.3813,1065.3438 Q383.0063,1065.3438 383.6,1065.0781 Q384.1938,1064.7969 384.8188,1064.2188 L384.8188,1066.9375 Z " fill="#000000"/><text fill="#000000" font-family="sans-serif" font-size="14" lengthAdjust="spacing" textLength="62" x="395.85" y="1066.1436">FlaskApp</text><line style="stroke:#181818;stroke-width:0.5;" x1="367.85" x2="459.85" y1="1077.2969" y2="1077.2969"/><line style="stroke:#181818;stroke-width:0.5;" x1="367.85" x2="459.85" y1="1085.2969" y2="1085.2969"/></g><!--MD5=[9d44916250b776386006c440668bcfbb]
class Agent--><g id="elem_Agent"><rect codeLine="14" fill="#F1F1F1" height="48" id="Agent" rx="2.5" ry="2.5" style="stroke:#181818;stroke-width:0.5;" width="73" x="274.35" y="1159.2969"/><ellipse cx="289.35" cy="1175.2969" fill="#ADD1B2" rx="11" ry="11" style="stroke:#181818;stroke-width:1.0;"/><path d="M292.3188,1180.9375 Q291.7406,1181.2344 291.1,1181.375 Q290.4594,1181.5313 289.7563,1181.5313 Q287.2563,1181.5313 285.9281,1179.8906 Q284.6156,1178.2344 284.6156,1175.1094 Q284.6156,1171.9844 285.9281,1170.3281 Q287.2563,1168.6719 289.7563,1168.6719 Q290.4594,1168.6719 291.1,1168.8281 Q291.7563,1168.9844 292.3188,1169.2813 L292.3188,1172 Q291.6938,1171.4219 291.1,1171.1563 Q290.5063,1170.875 289.8813,1170.875 Q288.5375,1170.875 287.85,1171.9531 Q287.1625,1173.0156 287.1625,1175.1094 Q287.1625,1177.2031 287.85,1178.2813 Q288.5375,1179.3438 289.8813,1179.3438 Q290.5063,1179.3438 291.1,1179.0781 Q291.6938,1178.7969 292.3188,1178.2188 L292.3188,1180.9375 Z " fill="#000000"/><text fill="#000000" font-family="sans-serif" font-size="14" lengthAdjust="spacing" textLength="41" x="303.35" y="1180.1436">Agent</text><line style="stroke:#181818;stroke-width:0.5;" x1="275.35" x2="346.35" y1="1191.2969" y2="1191.2969"/><line style="stroke:#181818;stroke-width:0.5;" x1="275.35" x2="346.35" y1="1199.2969" y2="1199.2969"/></g><!--MD5=[c90a1e2780ebfe8d08a0c8435da8a54d]
class RAG--><g id="elem_RAG"><rect codeLine="15" fill="#F1F1F1" height="48" id="RAG" rx="2.5" ry="2.5" style="stroke:#181818;stroke-width:0.5;" width="62" x="382.85" y="1159.2969"/><ellipse cx="397.85" cy="1175.2969" fill="#ADD1B2" rx="11" ry="11" style="stroke:#181818;stroke-width:1.0;"/><path d="M400.8188,1180.9375 Q400.2406,1181.2344 399.6,1181.375 Q398.9594,1181.5313 398.2563,1181.5313 Q395.7563,1181.5313 394.4281,1179.8906 Q393.1156,1178.2344 393.1156,1175.1094 Q393.1156,1171.9844 394.4281,1170.3281 Q395.7563,1168.6719 398.2563,1168.6719 Q398.9594,1168.6719 399.6,1168.8281 Q400.2563,1168.9844 400.8188,1169.2813 L400.8188,1172 Q400.1938,1171.4219 399.6,1171.1563 Q399.0063,1170.875 398.3813,1170.875 Q397.0375,1170.875 396.35,1171.9531 Q395.6625,1173.0156 395.6625,1175.1094 Q395.6625,1177.2031 396.35,1178.2813 Q397.0375,1179.3438 398.3813,1179.3438 Q399.0063,1179.3438 399.6,1179.0781 Q400.1938,1178.7969 400.8188,1178.2188 L400.8188,1180.9375 Z " fill="#000000"/><text fill="#000000" font-family="sans-serif" font-size="14" lengthAdjust="spacing" textLength="30" x="411.85" y="1180.1436">RAG</text><line style="stroke:#181818;stroke-width:0.5;" x1="383.85" x2="443.85" y1="1191.2969" y2="1191.2969"/><line style="stroke:#181818;stroke-width:0.5;" x1="383.85" x2="443.85" y1="1199.2969" y2="1199.2969"/></g><!--MD5=[20058e219a14d6a6e135282842ecdc50]
class LessonMaster--><g id="elem_LessonMaster"><rect codeLine="16" fill="#F1F1F1" height="48" id="LessonMaster" rx="2.5" ry="2.5" style="stroke:#181818;stroke-width:0.5;" width="129" x="480.35" y="1159.2969"/><ellipse cx="495.35" cy="1175.2969" fill="#ADD1B2" rx="11" ry="11" style="stroke:#181818;stroke-width:1.0;"/><path d="M498.3188,1180.9375 Q497.7406,1181.2344 497.1,1181.375 Q496.4594,1181.5313 495.7563,1181.5313 Q493.2563,1181.5313 491.9281,1179.8906 Q490.6156,1178.2344 490.6156,1175.1094 Q490.6156,1171.9844 491.9281,1170.3281 Q493.2563,1168.6719 495.7563,1168.6719 Q496.4594,1168.6719 497.1,1168.8281 Q497.7563,1168.9844 498.3188,1169.2813 L498.3188,1172 Q497.6938,1171.4219 497.1,1171.1563 Q496.5063,1170.875 495.8813,1170.875 Q494.5375,1170.875 493.85,1171.9531 Q493.1625,1173.0156 493.1625,1175.1094 Q493.1625,1177.2031 493.85,1178.2813 Q494.5375,1179.3438 495.8813,1179.3438 Q496.5063,1179.3438 497.1,1179.0781 Q497.6938,1178.7969 498.3188,1178.2188 L498.3188,1180.9375 Z " fill="#000000"/><text fill="#000000" font-family="sans-serif" font-size="14" lengthAdjust="spacing" textLength="97" x="509.35" y="1180.1436">LessonMaster</text><line style="stroke:#181818;stroke-width:0.5;" x1="481.35" x2="608.35" y1="1191.2969" y2="1191.2969"/><line style="stroke:#181818;stroke-width:0.5;" x1="481.35" x2="608.35" y1="1199.2969" y2="1199.2969"/></g><!--MD5=[187dfaf184f9660d7adf1febf058e911]
class LessonController--><g id="elem_LessonController"><rect codeLine="20" fill="#F1F1F1" height="48" id="LessonController" rx="2.5" ry="2.5" style="stroke:#181818;stroke-width:0.5;" width="149" x="501.35" y="603.2969"/><ellipse cx="516.35" cy="619.2969" fill="#ADD1B2" rx="11" ry="11" style="stroke:#181818;stroke-width:1.0;"/><path d="M519.3188,624.9375 Q518.7406,625.2344 518.1,625.375 Q517.4594,625.5313 516.7563,625.5313 Q514.2563,625.5313 512.9281,623.8906 Q511.6156,622.2344 511.6156,619.1094 Q511.6156,615.9844 512.9281,614.3281 Q514.2563,612.6719 516.7563,612.6719 Q517.4594,612.6719 518.1,612.8281 Q518.7563,612.9844 519.3188,613.2813 L519.3188,616 Q518.6938,615.4219 518.1,615.1563 Q517.5063,614.875 516.8813,614.875 Q515.5375,614.875 514.85,615.9531 Q514.1625,617.0156 514.1625,619.1094 Q514.1625,621.2031 514.85,622.2813 Q515.5375,623.3438 516.8813,623.3438 Q517.5063,623.3438 518.1,623.0781 Q518.6938,622.7969 519.3188,622.2188 L519.3188,624.9375 Z " fill="#000000"/><text fill="#000000" font-family="sans-serif" font-size="14" lengthAdjust="spacing" textLength="117" x="530.35" y="624.1436">LessonController</text><line style="stroke:#181818;stroke-width:0.5;" x1="502.35" x2="649.35" y1="635.2969" y2="635.2969"/><line style="stroke:#181818;stroke-width:0.5;" x1="502.35" x2="649.35" y1="643.2969" y2="643.2969"/></g><!--MD5=[53c6add6d081a181c3dded327b28122d]
class LessonService--><g id="elem_LessonService"><rect codeLine="21" fill="#F1F1F1" height="48" id="LessonService" rx="2.5" ry="2.5" style="stroke:#181818;stroke-width:0.5;" width="132" x="505.85" y="742.2969"/><ellipse cx="520.85" cy="758.2969" fill="#ADD1B2" rx="11" ry="11" style="stroke:#181818;stroke-width:1.0;"/><path d="M523.8188,763.9375 Q523.2406,764.2344 522.6,764.375 Q521.9594,764.5313 521.2563,764.5313 Q518.7563,764.5313 517.4281,762.8906 Q516.1156,761.2344 516.1156,758.1094 Q516.1156,754.9844 517.4281,753.3281 Q518.7563,751.6719 521.2563,751.6719 Q521.9594,751.6719 522.6,751.8281 Q523.2563,751.9844 523.8188,752.2813 L523.8188,755 Q523.1938,754.4219 522.6,754.1563 Q522.0063,753.875 521.3813,753.875 Q520.0375,753.875 519.35,754.9531 Q518.6625,756.0156 518.6625,758.1094 Q518.6625,760.2031 519.35,761.2813 Q520.0375,762.3438 521.3813,762.3438 Q522.0063,762.3438 522.6,762.0781 Q523.1938,761.7969 523.8188,761.2188 L523.8188,763.9375 Z " fill="#000000"/><text fill="#000000" font-family="sans-serif" font-size="14" lengthAdjust="spacing" textLength="100" x="534.85" y="763.1436">LessonService</text><line style="stroke:#181818;stroke-width:0.5;" x1="506.85" x2="636.85" y1="774.2969" y2="774.2969"/><line style="stroke:#181818;stroke-width:0.5;" x1="506.85" x2="636.85" y1="782.2969" y2="782.2969"/></g><!--MD5=[9878be2e161685c2af42b541dee0842e]
class AuthController--><g id="elem_AuthController"><rect codeLine="25" fill="#F1F1F1" height="48" id="AuthController" rx="2.5" ry="2.5" style="stroke:#181818;stroke-width:0.5;" width="131" x="1081.35" y="603.2969"/><ellipse cx="1096.35" cy="619.2969" fill="#ADD1B2" rx="11" ry="11" style="stroke:#181818;stroke-width:1.0;"/><path d="M1099.3188,624.9375 Q1098.7406,625.2344 1098.1,625.375 Q1097.4594,625.5313 1096.7563,625.5313 Q1094.2563,625.5313 1092.9281,623.8906 Q1091.6156,622.2344 1091.6156,619.1094 Q1091.6156,615.9844 1092.9281,614.3281 Q1094.2563,612.6719 1096.7563,612.6719 Q1097.4594,612.6719 1098.1,612.8281 Q1098.7563,612.9844 1099.3188,613.2813 L1099.3188,616 Q1098.6938,615.4219 1098.1,615.1563 Q1097.5063,614.875 1096.8813,614.875 Q1095.5375,614.875 1094.85,615.9531 Q1094.1625,617.0156 1094.1625,619.1094 Q1094.1625,621.2031 1094.85,622.2813 Q1095.5375,623.3438 1096.8813,623.3438 Q1097.5063,623.3438 1098.1,623.0781 Q1098.6938,622.7969 1099.3188,622.2188 L1099.3188,624.9375 Z " fill="#000000"/><text fill="#000000" font-family="sans-serif" font-size="14" lengthAdjust="spacing" textLength="99" x="1110.35" y="624.1436">AuthController</text><line style="stroke:#181818;stroke-width:0.5;" x1="1082.35" x2="1211.35" y1="635.2969" y2="635.2969"/><line style="stroke:#181818;stroke-width:0.5;" x1="1082.35" x2="1211.35" y1="643.2969" y2="643.2969"/></g><!--MD5=[b4f586f7c628b5a371c8c0ac9af5f898]
class AuthService--><g id="elem_AuthService"><rect codeLine="26" fill="#F1F1F1" height="48" id="AuthService" rx="2.5" ry="2.5" style="stroke:#181818;stroke-width:0.5;" width="114" x="1089.85" y="742.2969"/><ellipse cx="1104.85" cy="758.2969" fill="#ADD1B2" rx="11" ry="11" style="stroke:#181818;stroke-width:1.0;"/><path d="M1107.8188,763.9375 Q1107.2406,764.2344 1106.6,764.375 Q1105.9594,764.5313 1105.2563,764.5313 Q1102.7563,764.5313 1101.4281,762.8906 Q1100.1156,761.2344 1100.1156,758.1094 Q1100.1156,754.9844 1101.4281,753.3281 Q1102.7563,751.6719 1105.2563,751.6719 Q1105.9594,751.6719 1106.6,751.8281 Q1107.2563,751.9844 1107.8188,752.2813 L1107.8188,755 Q1107.1938,754.4219 1106.6,754.1563 Q1106.0063,753.875 1105.3813,753.875 Q1104.0375,753.875 1103.35,754.9531 Q1102.6625,756.0156 1102.6625,758.1094 Q1102.6625,760.2031 1103.35,761.2813 Q1104.0375,762.3438 1105.3813,762.3438 Q1106.0063,762.3438 1106.6,762.0781 Q1107.1938,761.7969 1107.8188,761.2188 L1107.8188,763.9375 Z " fill="#000000"/><text fill="#000000" font-family="sans-serif" font-size="14" lengthAdjust="spacing" textLength="82" x="1118.85" y="763.1436">AuthService</text><line style="stroke:#181818;stroke-width:0.5;" x1="1090.85" x2="1202.85" y1="774.2969" y2="774.2969"/><line style="stroke:#181818;stroke-width:0.5;" x1="1090.85" x2="1202.85" y1="782.2969" y2="782.2969"/></g><!--MD5=[e4ac4745f81aec2db60ad4ddae80b659]
class UserService--><g id="elem_UserService"><rect codeLine="27" fill="#F1F1F1" height="48" id="UserService" rx="2.5" ry="2.5" style="stroke:#181818;stroke-width:0.5;" width="114" x="1089.85" y="892.2969"/><ellipse cx="1104.85" cy="908.2969" fill="#ADD1B2" rx="11" ry="11" style="stroke:#181818;stroke-width:1.0;"/><path d="M1107.8188,913.9375 Q1107.2406,914.2344 1106.6,914.375 Q1105.9594,914.5313 1105.2563,914.5313 Q1102.7563,914.5313 1101.4281,912.8906 Q1100.1156,911.2344 1100.1156,908.1094 Q1100.1156,904.9844 1101.4281,903.3281 Q1102.7563,901.6719 1105.2563,901.6719 Q1105.9594,901.6719 1106.6,901.8281 Q1107.2563,901.9844 1107.8188,902.2813 L1107.8188,905 Q1107.1938,904.4219 1106.6,904.1563 Q1106.0063,903.875 1105.3813,903.875 Q1104.0375,903.875 1103.35,904.9531 Q1102.6625,906.0156 1102.6625,908.1094 Q1102.6625,910.2031 1103.35,911.2813 Q1104.0375,912.3438 1105.3813,912.3438 Q1106.0063,912.3438 1106.6,912.0781 Q1107.1938,911.7969 1107.8188,911.2188 L1107.8188,913.9375 Z " fill="#000000"/><text fill="#000000" font-family="sans-serif" font-size="14" lengthAdjust="spacing" textLength="82" x="1118.85" y="913.1436">UserService</text><line style="stroke:#181818;stroke-width:0.5;" x1="1090.85" x2="1202.85" y1="924.2969" y2="924.2969"/><line style="stroke:#181818;stroke-width:0.5;" x1="1090.85" x2="1202.85" y1="932.2969" y2="932.2969"/></g><!--MD5=[77688e44e194426d521287ac03cad0f3]
entity LawLifeKnowledgeBase--><g id="elem_LawLifeKnowledgeBase"><path d="M408.85,1306.2969 L449.85,1306.2969 A3.75,3.75 0 0 1 452.35,1308.7969 L459.35,1327.2969 L594.85,1327.2969 A2.5,2.5 0 0 1 597.35,1329.7969 L597.35,1358.0938 A2.5,2.5 0 0 1 594.85,1360.5938 L408.85,1360.5938 A2.5,2.5 0 0 1 406.35,1358.0938 L406.35,1308.7969 A2.5,2.5 0 0 1 408.85,1306.2969 " fill="#F1F1F1" style="stroke:#181818;stroke-width:0.5;"/><line style="stroke:#181818;stroke-width:0.5;" x1="406.35" x2="459.35" y1="1327.2969" y2="1327.2969"/><text fill="#000000" font-family="sans-serif" font-size="14" lengthAdjust="spacing" textLength="161" x="416.35" y="1347.292">LawLifeKnowledgeBase</text></g><!--MD5=[c6d75e1f281dcda73d475e041e015273]
entity TrajectoryLibrary--><g id="elem_TrajectoryLibrary"><path d="M231.35,1306.2969 L272.35,1306.2969 A3.75,3.75 0 0 1 274.85,1308.7969 L281.85,1327.2969 L368.35,1327.2969 A2.5,2.5 0 0 1 370.85,1329.7969 L370.85,1358.0938 A2.5,2.5 0 0 1 368.35,1360.5938 L231.35,1360.5938 A2.5,2.5 0 0 1 228.85,1358.0938 L228.85,1308.7969 A2.5,2.5 0 0 1 231.35,1306.2969 " fill="#F1F1F1" style="stroke:#181818;stroke-width:0.5;"/><line style="stroke:#181818;stroke-width:0.5;" x1="228.85" x2="281.85" y1="1327.2969" y2="1327.2969"/><text fill="#000000" font-family="sans-serif" font-size="14" lengthAdjust="spacing" textLength="112" x="238.85" y="1347.292">TrajectoryLibrary</text></g><!--MD5=[a208a1947dae456ffa42b3f3f5ab1004]
entity CurriculumJson--><g id="elem_CurriculumJson"><path d="M342.85,889.2969 L383.85,889.2969 A3.75,3.75 0 0 1 386.35,891.7969 L393.35,910.2969 L470.85,910.2969 A2.5,2.5 0 0 1 473.35,912.7969 L473.35,941.0938 A2.5,2.5 0 0 1 470.85,943.5938 L342.85,943.5938 A2.5,2.5 0 0 1 340.35,941.0938 L340.35,891.7969 A2.5,2.5 0 0 1 342.85,889.2969 " fill="#F1F1F1" style="stroke:#181818;stroke-width:0.5;"/><line style="stroke:#181818;stroke-width:0.5;" x1="340.35" x2="393.35" y1="910.2969" y2="910.2969"/><text fill="#000000" font-family="sans-serif" font-size="14" lengthAdjust="spacing" textLength="103" x="350.35" y="930.292">CurriculumJson</text></g><!--MD5=[feb5939ce823acf5a8245c3205b3c7a1]
entity Users--><g id="elem_Users"><path d="M1114.35,1042.2969 L1155.35,1042.2969 A3.75,3.75 0 0 1 1157.85,1044.7969 L1164.85,1063.2969 L1179.35,1063.2969 A2.5,2.5 0 0 1 1181.85,1065.7969 L1181.85,1094.0938 A2.5,2.5 0 0 1 1179.35,1096.5938 L1114.35,1096.5938 A2.5,2.5 0 0 1 1111.85,1094.0938 L1111.85,1044.7969 A2.5,2.5 0 0 1 1114.35,1042.2969 " fill="#F1F1F1" style="stroke:#181818;stroke-width:0.5;"/><line style="stroke:#181818;stroke-width:0.5;" x1="1111.85" x2="1164.85" y1="1063.2969" y2="1063.2969"/><text fill="#000000" font-family="sans-serif" font-size="14" lengthAdjust="spacing" textLength="40" x="1121.85" y="1083.292">Users</text></g><!--MD5=[a598cd9647d609c975cf8985588a9049]
link ChatController to ChatService--><g id="link_ChatController_ChatService"><path codeLine="47" d="M566.85,318.5169 C566.85,334.7769 566.85,356.6169 566.85,373.9169 " fill="none" id="ChatController-to-ChatService" style="stroke:#181818;stroke-width:1.0;"/><polygon fill="#181818" points="566.85,379.1269,570.85,370.1269,566.85,374.1269,562.85,370.1269,566.85,379.1269" style="stroke:#181818;stroke-width:1.0;"/></g><!--MD5=[60929d451ee8fbc6a492341bcd8346d1]
link AuthController to AuthService--><g id="link_AuthController_AuthService"><path codeLine="48" d="M1146.85,651.5369 C1146.85,675.0569 1146.85,711.4569 1146.85,736.7269 " fill="none" id="AuthController-to-AuthService" style="stroke:#181818;stroke-width:1.0;"/><polygon fill="#181818" points="1146.85,741.9469,1150.85,732.9469,1146.85,736.9469,1142.85,732.9469,1146.85,741.9469" style="stroke:#181818;stroke-width:1.0;"/></g><!--MD5=[3b84de5b0c7da42aab304dd9edee7f78]
link AuthService to UserService--><g id="link_AuthService_UserService"><path codeLine="49" d="M1146.85,790.4169 C1146.85,816.4469 1146.85,858.7369 1146.85,886.7769 " fill="none" id="AuthService-to-UserService" style="stroke:#181818;stroke-width:1.0;"/><polygon fill="#181818" points="1146.85,891.8469,1150.85,882.8469,1146.85,886.8469,1142.85,882.8469,1146.85,891.8469" style="stroke:#181818;stroke-width:1.0;"/></g><!--MD5=[24d51aab6949caea42da2da73ab96537]
link LessonController to LessonService--><g id="link_LessonController_LessonService"><path codeLine="50" d="M575.17,651.5369 C574.48,675.0569 573.42,711.4569 572.68,736.7269 " fill="none" id="LessonController-to-LessonService" style="stroke:#181818;stroke-width:1.0;"/><polygon fill="#181818" points="572.53,741.9469,576.7861,733.0651,572.6732,736.9489,568.7894,732.836,572.53,741.9469" style="stroke:#181818;stroke-width:1.0;"/></g><!--MD5=[ffd44a94e9e9e76359810a21855a45d7]
link LessonService to CurriculumJson--><g id="link_LessonService_CurriculumJson"><path codeLine="51" d="M546.07,790.4169 C517.41,816.1269 471.06,857.6969 439.8,885.7469 " fill="none" id="LessonService-to-CurriculumJson" style="stroke:#181818;stroke-width:1.0;"/><polygon fill="#181818" points="436.06,889.0969,445.4313,886.0672,439.7828,885.7591,440.0909,880.1107,436.06,889.0969" style="stroke:#181818;stroke-width:1.0;"/></g><!--MD5=[b38ed6bf1a32550f0d56ec54c5842f2c]
link Client to ChatController--><g id="link_Client_ChatController"><path codeLine="54" d="M536.34,71.0769 C438.8,72.7069 129.65,83.6869 71.85,157.2969 C6,241.1469 103.9,198.1669 198.85,219.2969 C304.28,242.7569 427.46,266.8569 501.2,280.9369 " fill="none" id="Client-ChatController" style="stroke:#181818;stroke-width:1.0;"/><text fill="#000000" font-family="sans-serif" font-size="13" lengthAdjust="spacing" textLength="94" x="79.85" y="177.3638">POST /chat/law</text><path d="M543.5282,78.0288 A10,10 0 0 0 543.2919 63.8886" fill="none" style="stroke:#181818;stroke-width:1.5;"/><ellipse cx="536.34" cy="71.0769" fill="#FFFFFF" rx="6" ry="6" style="stroke:#181818;stroke-width:1.5;"/></g><!--MD5=[b38ed6bf1a32550f0d56ec54c5842f2c]
link Client to ChatController--><g id="link_Client_ChatController"><path codeLine="55" d="M536.31,74.4069 C465,83.7969 286.75,111.4769 251.85,157.2969 C183.26,247.3269 390,278.6369 501.16,288.7869 " fill="none" id="Client-ChatController-1" style="stroke:#181818;stroke-width:1.0;"/><text fill="#000000" font-family="sans-serif" font-size="13" lengthAdjust="spacing" textLength="124" x="259.85" y="177.3638">POST /chat/german</text><path d="M544.2437,80.4943 A10,10 0 0 0 542.3974 66.4732" fill="none" style="stroke:#181818;stroke-width:1.5;"/><ellipse cx="536.31" cy="74.4069" fill="#FFFFFF" rx="6" ry="6" style="stroke:#181818;stroke-width:1.5;"/></g><!--MD5=[b38ed6bf1a32550f0d56ec54c5842f2c]
link Client to ChatController--><g id="link_Client_ChatController"><path codeLine="56" d="M536.04,85.2469 C499.22,105.2969 443.55,144.1269 461.85,188.2969 C476.05,222.5969 507.5,251.5269 532.3,270.2869 " fill="none" id="Client-ChatController-2" style="stroke:#181818;stroke-width:1.0;"/><text fill="#000000" font-family="sans-serif" font-size="13" lengthAdjust="spacing" textLength="177" x="469.85" y="177.3638">POST /chat/submit_answers</text><path d="M493.5235,225.1283 A10,10 0 0 0 483.109 234.6959" fill="none" style="stroke:#181818;stroke-width:1.5;"/><ellipse cx="493.1" cy="235.1194" fill="#FFFFFF" rx="6" ry="6" style="stroke:#181818;stroke-width:1.5;"/></g><!--MD5=[b38ed6bf1a32550f0d56ec54c5842f2c]
link Client to ChatController--><g id="link_Client_ChatController"><path codeLine="57" d="M595.48,88.6369 C617.55,103.7969 645.99,127.7869 658.85,157.2969 C677.57,200.2869 634.25,244.1869 600.88,270.0669 " fill="none" id="Client-ChatController-3" style="stroke:#181818;stroke-width:1.0;"/><text fill="#000000" font-family="sans-serif" font-size="13" lengthAdjust="spacing" textLength="106" x="670.85" y="177.3638">GET /chat/lesson</text><path d="M662.5074,147.9897 A10,10 0 0 0 649.5428 153.6395" fill="none" style="stroke:#181818;stroke-width:1.5;"/><ellipse cx="658.85" cy="157.2969" fill="#FFFFFF" rx="6" ry="6" style="stroke:#181818;stroke-width:1.5;"/></g><!--MD5=[b38ed6bf1a32550f0d56ec54c5842f2c]
link Client to ChatController--><g id="link_Client_ChatController"><path codeLine="58" d="M595.46,72.0169 C645.99,75.8769 747.74,91.8369 792.85,157.2969 C838.58,223.6569 714.61,263.0569 632.66,281.1969 " fill="none" id="Client-ChatController-4" style="stroke:#181818;stroke-width:1.0;"/><text fill="#000000" font-family="sans-serif" font-size="13" lengthAdjust="spacing" textLength="99" x="809.85" y="177.3638">GET /chat/tasks</text><path d="M588.9481,64.4278 A10,10 0 0 0 587.8709 78.5288" fill="none" style="stroke:#181818;stroke-width:1.5;"/><ellipse cx="595.46" cy="72.0169" fill="#FFFFFF" rx="6" ry="6" style="stroke:#181818;stroke-width:1.5;"/></g><!--MD5=[b38ed6bf1a32550f0d56ec54c5842f2c]
link Client to ChatController--><g id="link_Client_ChatController"><path codeLine="59" d="M595.47,73.3369 C673.9,80.7269 883.74,105.1069 924.85,157.2969 C1004.86,258.8869 756.64,284.6069 632.76,291.1069 " fill="none" id="Client-ChatController-5" style="stroke:#181818;stroke-width:1.0;"/><text fill="#000000" font-family="sans-serif" font-size="13" lengthAdjust="spacing" textLength="71" x="947.85" y="177.3638">POST /auth</text><path d="M589.0934,65.6337 A10,10 0 0 0 587.7668 79.7134" fill="none" style="stroke:#181818;stroke-width:1.5;"/><ellipse cx="595.47" cy="73.3369" fill="#FFFFFF" rx="6" ry="6" style="stroke:#181818;stroke-width:1.5;"/></g><!--MD5=[00cf2bb4de6f85ac171b3b30a1f1802d]
link ChatService to FlaskApp--><g id="link_ChatService_FlaskApp"><path codeLine="62" d="M509.56,403.7069 C376.71,403.8669 58.85,413.7669 58.85,504.7969 C58.85,504.7969 58.85,504.7969 58.85,917.2969 C58.85,1049.5769 270.14,1067.6269 366.71,1068.9669 " fill="none" id="ChatService-FlaskApp" style="stroke:#181818;stroke-width:1.0;"/><text fill="#000000" font-family="sans-serif" font-size="13" lengthAdjust="spacing" textLength="172" x="66.85" y="701.3638">POST /get_answer_german</text><path d="M516.6396,410.7694 A10,10 0 0 0 516.6225 396.6273" fill="none" style="stroke:#181818;stroke-width:1.5;"/><ellipse cx="509.56" cy="403.7069" fill="#FFFFFF" rx="6" ry="6" style="stroke:#181818;stroke-width:1.5;"/></g><!--MD5=[00cf2bb4de6f85ac171b3b30a1f1802d]
link ChatService to FlaskApp--><g id="link_ChatService_FlaskApp"><path codeLine="63" d="M509.51,412.9669 C427.59,426.9969 286.85,457.9269 286.85,504.7969 C286.85,504.7969 286.85,504.7969 286.85,917.2969 C286.85,973.1369 338.33,1019.0769 375.74,1045.0969 " fill="none" id="ChatService-FlaskApp-1" style="stroke:#181818;stroke-width:1.0;"/><text fill="#000000" font-family="sans-serif" font-size="13" lengthAdjust="spacing" textLength="167" x="294.85" y="701.3638">POST /get_answer_law_life</text><path d="M293.9211,549.2883 A10,10 0 0 0 279.7789 549.2883" fill="none" style="stroke:#181818;stroke-width:1.5;"/><ellipse cx="286.85" cy="556.3594" fill="#FFFFFF" rx="6" ry="6" style="stroke:#181818;stroke-width:1.5;"/></g><!--MD5=[b16b7d8f180a3c180c271a6a97b0110d]
link ChatService to AuthController--><g id="link_ChatService_AuthController"><path codeLine="65" d="M623.86,411.6469 C697.46,422.4769 828.47,446.3569 932.85,490.2969 C1003.85,520.1869 1077.78,572.7669 1117.46,603.0469 " fill="none" id="ChatService-AuthController" style="stroke:#181818;stroke-width:1.0;"/><text fill="#000000" font-family="sans-serif" font-size="13" lengthAdjust="spacing" textLength="105" x="1002.85" y="510.3638">POST /auth/login</text><path d="M929.0763,481.0362 A10,10 0 0 0 923.5894 494.0706" fill="none" style="stroke:#181818;stroke-width:1.5;"/><ellipse cx="932.85" cy="490.2969" fill="#FFFFFF" rx="6" ry="6" style="stroke:#181818;stroke-width:1.5;"/></g><!--MD5=[b16b7d8f180a3c180c271a6a97b0110d]
link ChatService to AuthController--><g id="link_ChatService_AuthController"><path codeLine="66" d="M624.18,404.9569 C751.89,407.6869 1053.99,421.4369 1123.85,490.2969 C1153.78,519.7969 1153.48,572.7669 1150.33,603.1669 " fill="none" id="ChatService-AuthController-1" style="stroke:#181818;stroke-width:1.0;"/><text fill="#000000" font-family="sans-serif" font-size="13" lengthAdjust="spacing" textLength="124" x="1150.85" y="510.3638">POST /auth/register</text><path d="M889.5584,414.9431 A10,10 0 0 0 887.8238 428.9785" fill="none" style="stroke:#181818;stroke-width:1.5;"/><ellipse cx="895.7087" cy="422.8281" fill="#FFFFFF" rx="6" ry="6" style="stroke:#181818;stroke-width:1.5;"/></g><!--MD5=[70bcad71c3576837eaf3a75a3c11be38]
link LessonService to FlaskApp--><g id="link_LessonService_FlaskApp"><path codeLine="68" d="M564.55,790.3669 C552.01,828.5369 524.35,906.6169 489.85,967.2969 C473.68,995.7169 450.59,1025.2669 434.11,1045.0069 " fill="none" id="LessonService-FlaskApp" style="stroke:#181818;stroke-width:1.0;"/><text fill="#000000" font-family="sans-serif" font-size="13" lengthAdjust="spacing" textLength="143" x="556.85" y="920.8638">POST /get_lesson_text</text><path d="M499.4919,964.6448 A10,10 0 0 0 487.1979 957.655" fill="none" style="stroke:#181818;stroke-width:1.5;"/><ellipse cx="489.85" cy="967.2969" fill="#FFFFFF" rx="6" ry="6" style="stroke:#181818;stroke-width:1.5;"/></g><!--MD5=[70bcad71c3576837eaf3a75a3c11be38]
link LessonService to FlaskApp--><g id="link_LessonService_FlaskApp"><path codeLine="69" d="M638.05,779.7869 C667.1,788.9169 698.48,804.5769 715.85,831.2969 C748.78,881.9769 751.17,918.2469 715.85,967.2969 C657.3,1048.6169 530.27,1065.4169 461.08,1068.2869 " fill="none" id="LessonService-FlaskApp-1" style="stroke:#181818;stroke-width:1.0;"/><text fill="#000000" font-family="sans-serif" font-size="13" lengthAdjust="spacing" textLength="169" x="748.85" y="920.8638">GET /get_lesson_exercises</text><path d="M601.2964,1051.8829 A10,10 0 0 0 597.1273 1038.3692" fill="none" style="stroke:#181818;stroke-width:1.5;"/><ellipse cx="592.455" cy="1047.2106" fill="#FFFFFF" rx="6" ry="6" style="stroke:#181818;stroke-width:1.5;"/></g><!--MD5=[ccd0b53920038f16cca58b96665c8315]
link FlaskApp to Agent--><g id="link_FlaskApp_Agent"><path codeLine="72" d="M392.51,1093.5069 C375.93,1111.5269 352.93,1136.5369 335.56,1155.4269 " fill="none" id="FlaskApp-to-Agent" style="stroke:#181818;stroke-width:1.0;"/><polygon fill="#181818" points="332.16,1159.1169,341.2018,1155.2124,335.5496,1155.4412,335.3208,1149.789,332.16,1159.1169" style="stroke:#181818;stroke-width:1.0;"/></g><!--MD5=[adbef9377482cfc4fdcd730fa11fff31]
link FlaskApp to RAG--><g id="link_FlaskApp_RAG"><path codeLine="73" d="M413.85,1093.5069 C413.85,1111.0769 413.85,1135.2969 413.85,1153.9969 " fill="none" id="FlaskApp-to-RAG" style="stroke:#181818;stroke-width:1.0;"/><polygon fill="#181818" points="413.85,1159.1169,417.85,1150.1169,413.85,1154.1169,409.85,1150.1169,413.85,1159.1169" style="stroke:#181818;stroke-width:1.0;"/></g><!--MD5=[aa04bf49ee65400b828bc5bc34fea1e9]
link FlaskApp to LessonMaster--><g id="link_FlaskApp_LessonMaster"><path codeLine="74" d="M440.99,1093.5069 C462.16,1111.5969 491.57,1136.7469 513.7,1155.6669 " fill="none" id="FlaskApp-to-LessonMaster" style="stroke:#181818;stroke-width:1.0;"/><polygon fill="#181818" points="517.74,1159.1169,513.5099,1150.2227,513.9437,1155.8629,508.3035,1156.2968,517.74,1159.1169" style="stroke:#181818;stroke-width:1.0;"/></g><!--MD5=[e2f74b82c7c579b848b132fbe2c1f1b8]
link ChatService to LessonController--><g id="link_ChatService_LessonController"><path codeLine="77" d="M509.64,418.6069 C451.31,436.3069 373.15,470.4569 401.85,521.2969 C424.05,560.6269 467.55,586.8769 505.5,603.2969 " fill="none" id="ChatService-LessonController" style="stroke:#181818;stroke-width:1.0;"/><text fill="#000000" font-family="sans-serif" font-size="13" lengthAdjust="spacing" textLength="106" x="409.85" y="510.3638">GET /lesson/next</text><path d="M446.263,561.0021 A10,10 0 0 0 437.8828 572.3939" fill="none" style="stroke:#181818;stroke-width:1.5;"/><ellipse cx="447.7688" cy="570.8881" fill="#FFFFFF" rx="6" ry="6" style="stroke:#181818;stroke-width:1.5;"/></g><!--MD5=[e2f74b82c7c579b848b132fbe2c1f1b8]
link ChatService to LessonController--><g id="link_ChatService_LessonController"><path codeLine="78" d="M567.79,427.6369 C569.53,470.3869 573.19,560.7569 574.91,603.2669 " fill="none" id="ChatService-LessonController-1" style="stroke:#181818;stroke-width:1.0;"/><text fill="#000000" font-family="sans-serif" font-size="13" lengthAdjust="spacing" textLength="112" x="578.85" y="510.3638">GET /lesson/tasks</text><path d="M578.1364,508.1903 A10,10 0 0 0 564.0059 508.7629" fill="none" style="stroke:#181818;stroke-width:1.5;"/><ellipse cx="571.3575" cy="515.5419" fill="#FFFFFF" rx="6" ry="6" style="stroke:#181818;stroke-width:1.5;"/></g><!--MD5=[e2f74b82c7c579b848b132fbe2c1f1b8]
link ChatService to LessonController--><g id="link_ChatService_LessonController"><path codeLine="79" d="M624.2,423.7169 C654.57,437.2669 689.16,458.6769 706.85,490.2969 C732.69,536.5069 673.79,578.5369 626.79,603.2769 " fill="none" id="ChatService-LessonController-2" style="stroke:#181818;stroke-width:1.0;"/><text fill="#000000" font-family="sans-serif" font-size="13" lengthAdjust="spacing" textLength="196" x="720.85" y="510.3638">POST /lesson/process_answers</text><path d="M668.869,440.3307 A10,10 0 0 0 660.38 451.6416" fill="none" style="stroke:#181818;stroke-width:1.5;"/><ellipse cx="670.28" cy="450.2306" fill="#FFFFFF" rx="6" ry="6" style="stroke:#181818;stroke-width:1.5;"/></g><!--MD5=[c64aaaf1759139255b6f978a1b767ec8]
link Agent to TrajectoryLibrary--><g id="link_Agent_TrajectoryLibrary"><path codeLine="82" d="M309.13,1207.4169 C307.26,1232.6069 304.25,1273.0169 302.17,1301.0169 " fill="none" id="Agent-to-TrajectoryLibrary" style="stroke:#181818;stroke-width:1.0;"/><polygon fill="#181818" points="301.79,1306.0969,306.4476,1297.4189,302.1615,1301.1107,298.4697,1296.8246,301.79,1306.0969" style="stroke:#181818;stroke-width:1.0;"/></g><!--MD5=[f69f7321ac5f04d69f5e7ca61f3962b6]
link RAG to LawLifeKnowledgeBase--><g id="link_RAG_LawLifeKnowledgeBase"><path codeLine="83" d="M427.6,1207.4169 C442.69,1232.8069 467,1273.6869 483.66,1301.7069 " fill="none" id="RAG-to-LawLifeKnowledgeBase" style="stroke:#181818;stroke-width:1.0;"/><polygon fill="#181818" points="486.27,1306.0969,485.1078,1296.3168,483.7143,1301.7994,478.2318,1300.4059,486.27,1306.0969" style="stroke:#181818;stroke-width:1.0;"/></g><!--MD5=[69e6289ac8e02a0ee38715584b895bda]
link UserService to Users--><g id="link_UserService_Users"><path codeLine="86" d="M1146.85,940.5569 C1146.85,966.4169 1146.85,1008.3069 1146.85,1037.0169 " fill="none" id="UserService-to-Users" style="stroke:#181818;stroke-width:1.0;"/><polygon fill="#181818" points="1146.85,1042.2169,1150.85,1033.2169,1146.85,1037.2169,1142.85,1033.2169,1146.85,1042.2169" style="stroke:#181818;stroke-width:1.0;"/></g><!--MD5=[62de4137ce6d0779740599b3c16de963]
@startuml
!define RECTANGLE class

title Backend Architecture 

package "Client" {}

package "API Gateway" {
    RECTANGLE ChatController
    RECTANGLE ChatService
}

package "Agent Service" {
    RECTANGLE FlaskApp
    RECTANGLE Agent
    RECTANGLE RAG
    RECTANGLE LessonMaster
}

package "Curriculum Service" {
    RECTANGLE LessonController
    RECTANGLE LessonService
}

package "User Service" {
    RECTANGLE AuthController
    RECTANGLE AuthService
    RECTANGLE UserService
}

database "MilvusVectorStore" {
  folder "LawLifeKnowledgeBase" {
 }
 folder "TrajectoryLibrary" {
 }
}

database "Curriculum" {
    folder "CurriculumJson" {
    }
}

database "User" {
    folder "Users" {
    }
}

ChatController - -> ChatService
AuthController - -> AuthService
AuthService - -> UserService
LessonController - -> LessonService
LessonService - -> CurriculumJson

' API Gateway connections
Client - -(0- ChatController : POST /chat/law
Client - -(0- ChatController: POST /chat/german
Client - -(0- ChatController: POST /chat/submit_answers
Client - -(0- ChatController: GET /chat/lesson
Client - -(0- ChatController: GET /chat/tasks
Client - -(0- ChatController: POST /auth

  
ChatService - -(0- FlaskApp  : POST /get_answer_german
ChatService - -(0- FlaskApp : POST /get_answer_law_life

ChatService - -(0- AuthController : POST /auth/login
ChatService - -(0- AuthController : POST /auth/register 
  
LessonService - -(0- FlaskApp : POST /get_lesson_text
LessonService - -(0- FlaskApp : GET /get_lesson_exercises

' Agent Service connections
FlaskApp - -> Agent
FlaskApp - -> RAG
FlaskApp - -> LessonMaster

' Curriculum Service connections
ChatService - -(0- LessonController : GET /lesson/next
ChatService - -(0- LessonController: GET /lesson/tasks
ChatService - -(0- LessonController : POST /lesson/process_answers

' MilvusVectorStore connections
Agent - -> TrajectoryLibrary
RAG - -> LawLifeKnowledgeBase

'Auth User connections
UserService - -> Users
@enduml

@startuml

title Backend Architecture 

package "Client" {}

package "API Gateway" {
    class ChatController
    class ChatService
}

package "Agent Service" {
    class FlaskApp
    class Agent
    class RAG
    class LessonMaster
}

package "Curriculum Service" {
    class LessonController
    class LessonService
}

package "User Service" {
    class AuthController
    class AuthService
    class UserService
}

database "MilvusVectorStore" {
  folder "LawLifeKnowledgeBase" {
 }
 folder "TrajectoryLibrary" {
 }
}

database "Curriculum" {
    folder "CurriculumJson" {
    }
}

database "User" {
    folder "Users" {
    }
}

ChatController - -> ChatService
AuthController - -> AuthService
AuthService - -> UserService
LessonController - -> LessonService
LessonService - -> CurriculumJson

Client - -(0- ChatController : POST /chat/law
Client - -(0- ChatController: POST /chat/german
Client - -(0- ChatController: POST /chat/submit_answers
Client - -(0- ChatController: GET /chat/lesson
Client - -(0- ChatController: GET /chat/tasks
Client - -(0- ChatController: POST /auth

  
ChatService - -(0- FlaskApp  : POST /get_answer_german
ChatService - -(0- FlaskApp : POST /get_answer_law_life

ChatService - -(0- AuthController : POST /auth/login
ChatService - -(0- AuthController : POST /auth/register 
  
LessonService - -(0- FlaskApp : POST /get_lesson_text
LessonService - -(0- FlaskApp : GET /get_lesson_exercises

FlaskApp - -> Agent
FlaskApp - -> RAG
FlaskApp - -> LessonMaster

ChatService - -(0- LessonController : GET /lesson/next
ChatService - -(0- LessonController: GET /lesson/tasks
ChatService - -(0- LessonController : POST /lesson/process_answers

Agent - -> TrajectoryLibrary
RAG - -> LawLifeKnowledgeBase

UserService - -> Users
@enduml

PlantUML version 1.2022.7(Mon Aug 22 17:01:30 UTC 2022)
(GPL source distribution)
Java Runtime: OpenJDK Runtime Environment
JVM: OpenJDK 64-Bit Server VM
Default Encoding: UTF-8
Language: en
Country: null
--></g></svg>