<?xml version="1.0" encoding="UTF-8" standalone="no"?><svg xmlns="http://www.w3.org/2000/svg" xmlns:xlink="http://www.w3.org/1999/xlink" contentStyleType="text/css" height="1393px" preserveAspectRatio="none" style="width:1263px;height:1393px;background:#FFFFFF;" version="1.1" viewBox="0 0 1263 1393" width="1263px" zoomAndPan="magnify"><defs/><g><rect fill="none" height="26.2969" id="_title" style="stroke:none;stroke-width:1.0;" width="181" x="534.42" y="5"/><text fill="#000000" font-family="sans-serif" font-size="14" font-weight="bold" lengthAdjust="spacing" textLength="171" x="539.42" y="22.9951">Backend Architecture</text><!--MD5=[20739893a3f680369e2b8e6f2c345f86]
cluster API Gateway--><g id="cluster_API Gateway"><path d="M487.34,235.2969 L587.34,235.2969 A3.75,3.75 0 0 1 589.84,237.7969 L596.84,257.5938 L845.34,257.5938 A2.5,2.5 0 0 1 847.84,260.0938 L847.84,440.7969 A2.5,2.5 0 0 1 845.34,443.2969 L487.34,443.2969 A2.5,2.5 0 0 1 484.84,440.7969 L484.84,237.7969 A2.5,2.5 0 0 1 487.34,235.2969 " fill="none" style="stroke:#000000;stroke-width:1.5;"/><line style="stroke:#000000;stroke-width:1.5;" x1="484.84" x2="596.84" y1="257.5938" y2="257.5938"/><text fill="#000000" font-family="sans-serif" font-size="14" font-weight="bold" lengthAdjust="spacing" textLength="99" x="488.84" y="250.292">API Gateway</text></g><!--MD5=[f9c0b3d2143902d108985c4fe6361688]
cluster Agent Service--><g id="cluster_Agent Service"><path d="M251.34,1010.2969 L363.34,1010.2969 A3.75,3.75 0 0 1 365.84,1012.7969 L372.84,1032.5938 L614.34,1032.5938 A2.5,2.5 0 0 1 616.84,1035.0938 L616.84,1220.7969 A2.5,2.5 0 0 1 614.34,1223.2969 L251.34,1223.2969 A2.5,2.5 0 0 1 248.84,1220.7969 L248.84,1012.7969 A2.5,2.5 0 0 1 251.34,1010.2969 " fill="none" style="stroke:#000000;stroke-width:1.5;"/><line style="stroke:#000000;stroke-width:1.5;" x1="248.84" x2="372.84" y1="1032.5938" y2="1032.5938"/><text fill="#000000" font-family="sans-serif" font-size="14" font-weight="bold" lengthAdjust="spacing" textLength="111" x="252.84" y="1025.292">Agent Service</text></g><!--MD5=[76d5cce22ca198b5dc3a5ee7e14034a9]
cluster Curriculum Service--><g id="cluster_Curriculum Service"><path d="M479.34,568.2969 L630.34,568.2969 A3.75,3.75 0 0 1 632.84,570.7969 L639.84,590.5938 L654.34,590.5938 A2.5,2.5 0 0 1 656.84,593.0938 L656.84,803.7969 A2.5,2.5 0 0 1 654.34,806.2969 L479.34,806.2969 A2.5,2.5 0 0 1 476.84,803.7969 L476.84,570.7969 A2.5,2.5 0 0 1 479.34,568.2969 " fill="none" style="stroke:#000000;stroke-width:1.5;"/><line style="stroke:#000000;stroke-width:1.5;" x1="476.84" x2="639.84" y1="590.5938" y2="590.5938"/><text fill="#000000" font-family="sans-serif" font-size="14" font-weight="bold" lengthAdjust="spacing" textLength="150" x="480.84" y="583.292">Curriculum Service</text></g><!--MD5=[4771646b54a3ec80f5e29129ccd4b900]
cluster User Service--><g id="cluster_User Service"><path d="M1058.34,568.2969 L1160.34,568.2969 A3.75,3.75 0 0 1 1162.84,570.7969 L1169.84,590.5938 L1217.34,590.5938 A2.5,2.5 0 0 1 1219.84,593.0938 L1219.84,953.7969 A2.5,2.5 0 0 1 1217.34,956.2969 L1058.34,956.2969 A2.5,2.5 0 0 1 1055.84,953.7969 L1055.84,570.7969 A2.5,2.5 0 0 1 1058.34,568.2969 " fill="none" style="stroke:#000000;stroke-width:1.5;"/><line style="stroke:#000000;stroke-width:1.5;" x1="1055.84" x2="1169.84" y1="590.5938" y2="590.5938"/><text fill="#000000" font-family="sans-serif" font-size="14" font-weight="bold" lengthAdjust="spacing" textLength="101" x="1059.84" y="583.292">User Service</text></g><!--MD5=[4adc20ff935032db8738ac4a52234fc3]
cluster MilvusVectorStore--><g id="cluster_MilvusVectorStore"><path d="M203.84,1266.2969 C203.84,1256.2969 404.34,1256.2969 404.34,1256.2969 C404.34,1256.2969 604.84,1256.2969 604.84,1266.2969 L604.84,1366.2969 C604.84,1376.2969 404.34,1376.2969 404.34,1376.2969 C404.34,1376.2969 203.84,1376.2969 203.84,1366.2969 L203.84,1266.2969 " fill="none" style="stroke:#181818;stroke-width:1.0;"/><path d="M203.84,1266.2969 C203.84,1276.2969 404.34,1276.2969 404.34,1276.2969 C404.34,1276.2969 604.84,1276.2969 604.84,1266.2969 " fill="none" style="stroke:#181818;stroke-width:1.0;"/><text fill="#000000" font-family="sans-serif" font-size="14" font-weight="bold" lengthAdjust="spacing" textLength="145" x="331.84" y="1291.292">MilvusVectorStore</text></g><!--MD5=[0f6e84fbb62de67079327d203d8ce838]
cluster Curriculum--><g id="cluster_Curriculum"><path d="M314.84,849.2969 C314.84,839.2969 397.84,839.2969 397.84,839.2969 C397.84,839.2969 480.84,839.2969 480.84,849.2969 L480.84,949.2969 C480.84,959.2969 397.84,959.2969 397.84,959.2969 C397.84,959.2969 314.84,959.2969 314.84,949.2969 L314.84,849.2969 " fill="none" style="stroke:#181818;stroke-width:1.0;"/><path d="M314.84,849.2969 C314.84,859.2969 397.84,859.2969 397.84,859.2969 C397.84,859.2969 480.84,859.2969 480.84,849.2969 " fill="none" style="stroke:#181818;stroke-width:1.0;"/><text fill="#000000" font-family="sans-serif" font-size="14" font-weight="bold" lengthAdjust="spacing" textLength="86" x="354.84" y="874.292">Curriculum</text></g><!--MD5=[d0083cf0b2d9f17e335f85bf9624e57e]
cluster User--><g id="cluster_User"><path d="M1086.84,1002.2969 C1086.84,992.2969 1137.84,992.2969 1137.84,992.2969 C1137.84,992.2969 1188.84,992.2969 1188.84,1002.2969 L1188.84,1102.2969 C1188.84,1112.2969 1137.84,1112.2969 1137.84,1112.2969 C1137.84,1112.2969 1086.84,1112.2969 1086.84,1102.2969 L1086.84,1002.2969 " fill="none" style="stroke:#181818;stroke-width:1.0;"/><path d="M1086.84,1002.2969 C1086.84,1012.2969 1137.84,1012.2969 1137.84,1012.2969 C1137.84,1012.2969 1188.84,1012.2969 1188.84,1002.2969 " fill="none" style="stroke:#181818;stroke-width:1.0;"/><text fill="#000000" font-family="sans-serif" font-size="14" font-weight="bold" lengthAdjust="spacing" textLength="37" x="1119.34" y="1027.292">User</text></g><path d="M538.84,43.2969 L578.84,43.2969 A3.75,3.75 0 0 1 581.34,45.7969 L588.34,65.5938 L592.84,65.5938 A2.5,2.5 0 0 1 595.34,68.0938 L595.34,93.3906 A2.5,2.5 0 0 1 592.84,95.8906 L538.84,95.8906 A2.5,2.5 0 0 1 536.34,93.3906 L536.34,45.7969 A2.5,2.5 0 0 1 538.84,43.2969 " fill="#F1F1F1" style="stroke:#181818;stroke-width:0.5;"/><line style="stroke:#181818;stroke-width:0.5;" x1="536.34" x2="588.34" y1="65.5938" y2="65.5938"/><text fill="#000000" font-family="sans-serif" font-size="14" lengthAdjust="spacing" textLength="39" x="540.34" y="58.292">Client</text><!--MD5=[d882df5981bf0da50176e76fa31f5fea]
class ChatController--><g id="elem_ChatController"><rect codeLine="8" fill="#F1F1F1" height="48" id="ChatController" rx="2.5" ry="2.5" style="stroke:#181818;stroke-width:0.5;" width="131" x="501.34" y="270.2969"/><ellipse cx="516.34" cy="286.2969" fill="#ADD1B2" rx="11" ry="11" style="stroke:#181818;stroke-width:1.0;"/><path d="M519.3088,291.9375 Q518.7306,292.2344 518.09,292.375 Q517.4494,292.5313 516.7463,292.5313 Q514.2463,292.5313 512.9181,290.8906 Q511.6056,289.2344 511.6056,286.1094 Q511.6056,282.9844 512.9181,281.3281 Q514.2463,279.6719 516.7463,279.6719 Q517.4494,279.6719 518.09,279.8281 Q518.7463,279.9844 519.3088,280.2813 L519.3088,283 Q518.6838,282.4219 518.09,282.1563 Q517.4963,281.875 516.8713,281.875 Q515.5275,281.875 514.84,282.9531 Q514.1525,284.0156 514.1525,286.1094 Q514.1525,288.2031 514.84,289.2813 Q515.5275,290.3438 516.8713,290.3438 Q517.4963,290.3438 518.09,290.0781 Q518.6838,289.7969 519.3088,289.2188 L519.3088,291.9375 Z " fill="#000000"/><text fill="#000000" font-family="sans-serif" font-size="14" lengthAdjust="spacing" textLength="99" x="530.34" y="291.1436">ChatController</text><line style="stroke:#181818;stroke-width:0.5;" x1="502.34" x2="631.34" y1="302.2969" y2="302.2969"/><line style="stroke:#181818;stroke-width:0.5;" x1="502.34" x2="631.34" y1="310.2969" y2="310.2969"/></g><!--MD5=[34b2f0f7407082ec51a775b6d59284b9]
class ChatService--><g id="elem_ChatService"><rect codeLine="9" fill="#F1F1F1" height="48" id="ChatService" rx="2.5" ry="2.5" style="stroke:#181818;stroke-width:0.5;" width="114" x="500.84" y="379.2969"/><ellipse cx="515.84" cy="395.2969" fill="#ADD1B2" rx="11" ry="11" style="stroke:#181818;stroke-width:1.0;"/><path d="M518.8088,400.9375 Q518.2306,401.2344 517.59,401.375 Q516.9494,401.5313 516.2463,401.5313 Q513.7463,401.5313 512.4181,399.8906 Q511.1056,398.2344 511.1056,395.1094 Q511.1056,391.9844 512.4181,390.3281 Q513.7463,388.6719 516.2463,388.6719 Q516.9494,388.6719 517.59,388.8281 Q518.2463,388.9844 518.8088,389.2813 L518.8088,392 Q518.1838,391.4219 517.59,391.1563 Q516.9963,390.875 516.3713,390.875 Q515.0275,390.875 514.34,391.9531 Q513.6525,393.0156 513.6525,395.1094 Q513.6525,397.2031 514.34,398.2813 Q515.0275,399.3438 516.3713,399.3438 Q516.9963,399.3438 517.59,399.0781 Q518.1838,398.7969 518.8088,398.2188 L518.8088,400.9375 Z " fill="#000000"/><text fill="#000000" font-family="sans-serif" font-size="14" lengthAdjust="spacing" textLength="82" x="529.84" y="400.1436">ChatService</text><line style="stroke:#181818;stroke-width:0.5;" x1="501.84" x2="613.84" y1="411.2969" y2="411.2969"/><line style="stroke:#181818;stroke-width:0.5;" x1="501.84" x2="613.84" y1="419.2969" y2="419.2969"/></g><!--MD5=[b3252cb579374b82b1a75bcdd0b1728a]
class GateAuthController--><g id="elem_GateAuthController"><rect codeLine="10" fill="#F1F1F1" height="48" id="GateAuthController" rx="2.5" ry="2.5" style="stroke:#181818;stroke-width:0.5;" width="164" x="667.84" y="270.2969"/><ellipse cx="682.84" cy="286.2969" fill="#ADD1B2" rx="11" ry="11" style="stroke:#181818;stroke-width:1.0;"/><path d="M685.8088,291.9375 Q685.2306,292.2344 684.59,292.375 Q683.9494,292.5313 683.2463,292.5313 Q680.7463,292.5313 679.4181,290.8906 Q678.1056,289.2344 678.1056,286.1094 Q678.1056,282.9844 679.4181,281.3281 Q680.7463,279.6719 683.2463,279.6719 Q683.9494,279.6719 684.59,279.8281 Q685.2463,279.9844 685.8088,280.2813 L685.8088,283 Q685.1838,282.4219 684.59,282.1563 Q683.9963,281.875 683.3713,281.875 Q682.0275,281.875 681.34,282.9531 Q680.6525,284.0156 680.6525,286.1094 Q680.6525,288.2031 681.34,289.2813 Q682.0275,290.3438 683.3713,290.3438 Q683.9963,290.3438 684.59,290.0781 Q685.1838,289.7969 685.8088,289.2188 L685.8088,291.9375 Z " fill="#000000"/><text fill="#000000" font-family="sans-serif" font-size="14" lengthAdjust="spacing" textLength="132" x="696.84" y="291.1436">GateAuthController</text><line style="stroke:#181818;stroke-width:0.5;" x1="668.84" x2="830.84" y1="302.2969" y2="302.2969"/><line style="stroke:#181818;stroke-width:0.5;" x1="668.84" x2="830.84" y1="310.2969" y2="310.2969"/></g><!--MD5=[bbcf22670596a9dafcf5a0f32563f4b3]
class GateAuthService--><g id="elem_GateAuthService"><rect codeLine="11" fill="#F1F1F1" height="48" id="GateAuthService" rx="2.5" ry="2.5" style="stroke:#181818;stroke-width:0.5;" width="147" x="684.34" y="379.2969"/><ellipse cx="699.34" cy="395.2969" fill="#ADD1B2" rx="11" ry="11" style="stroke:#181818;stroke-width:1.0;"/><path d="M702.3088,400.9375 Q701.7306,401.2344 701.09,401.375 Q700.4494,401.5313 699.7463,401.5313 Q697.2463,401.5313 695.9181,399.8906 Q694.6056,398.2344 694.6056,395.1094 Q694.6056,391.9844 695.9181,390.3281 Q697.2463,388.6719 699.7463,388.6719 Q700.4494,388.6719 701.09,388.8281 Q701.7463,388.9844 702.3088,389.2813 L702.3088,392 Q701.6838,391.4219 701.09,391.1563 Q700.4963,390.875 699.8713,390.875 Q698.5275,390.875 697.84,391.9531 Q697.1525,393.0156 697.1525,395.1094 Q697.1525,397.2031 697.84,398.2813 Q698.5275,399.3438 699.8713,399.3438 Q700.4963,399.3438 701.09,399.0781 Q701.6838,398.7969 702.3088,398.2188 L702.3088,400.9375 Z " fill="#000000"/><text fill="#000000" font-family="sans-serif" font-size="14" lengthAdjust="spacing" textLength="115" x="713.34" y="400.1436">GateAuthService</text><line style="stroke:#181818;stroke-width:0.5;" x1="685.34" x2="830.34" y1="411.2969" y2="411.2969"/><line style="stroke:#181818;stroke-width:0.5;" x1="685.34" x2="830.34" y1="419.2969" y2="419.2969"/></g><!--MD5=[9e19163b4ff240ecb98498044fd22701]
class FlaskApp--><g id="elem_FlaskApp"><rect codeLine="15" fill="#F1F1F1" height="48" id="FlaskApp" rx="2.5" ry="2.5" style="stroke:#181818;stroke-width:0.5;" width="94" x="357.84" y="1045.2969"/><ellipse cx="372.84" cy="1061.2969" fill="#ADD1B2" rx="11" ry="11" style="stroke:#181818;stroke-width:1.0;"/><path d="M375.8088,1066.9375 Q375.2306,1067.2344 374.59,1067.375 Q373.9494,1067.5313 373.2463,1067.5313 Q370.7463,1067.5313 369.4181,1065.8906 Q368.1056,1064.2344 368.1056,1061.1094 Q368.1056,1057.9844 369.4181,1056.3281 Q370.7463,1054.6719 373.2463,1054.6719 Q373.9494,1054.6719 374.59,1054.8281 Q375.2463,1054.9844 375.8088,1055.2813 L375.8088,1058 Q375.1838,1057.4219 374.59,1057.1563 Q373.9963,1056.875 373.3713,1056.875 Q372.0275,1056.875 371.34,1057.9531 Q370.6525,1059.0156 370.6525,1061.1094 Q370.6525,1063.2031 371.34,1064.2813 Q372.0275,1065.3438 373.3713,1065.3438 Q373.9963,1065.3438 374.59,1065.0781 Q375.1838,1064.7969 375.8088,1064.2188 L375.8088,1066.9375 Z " fill="#000000"/><text fill="#000000" font-family="sans-serif" font-size="14" lengthAdjust="spacing" textLength="62" x="386.84" y="1066.1436">FlaskApp</text><line style="stroke:#181818;stroke-width:0.5;" x1="358.84" x2="450.84" y1="1077.2969" y2="1077.2969"/><line style="stroke:#181818;stroke-width:0.5;" x1="358.84" x2="450.84" y1="1085.2969" y2="1085.2969"/></g><!--MD5=[9d44916250b776386006c440668bcfbb]
class Agent--><g id="elem_Agent"><rect codeLine="16" fill="#F1F1F1" height="48" id="Agent" rx="2.5" ry="2.5" style="stroke:#181818;stroke-width:0.5;" width="73" x="265.34" y="1159.2969"/><ellipse cx="280.34" cy="1175.2969" fill="#ADD1B2" rx="11" ry="11" style="stroke:#181818;stroke-width:1.0;"/><path d="M283.3088,1180.9375 Q282.7306,1181.2344 282.09,1181.375 Q281.4494,1181.5313 280.7463,1181.5313 Q278.2463,1181.5313 276.9181,1179.8906 Q275.6056,1178.2344 275.6056,1175.1094 Q275.6056,1171.9844 276.9181,1170.3281 Q278.2463,1168.6719 280.7463,1168.6719 Q281.4494,1168.6719 282.09,1168.8281 Q282.7463,1168.9844 283.3088,1169.2813 L283.3088,1172 Q282.6838,1171.4219 282.09,1171.1563 Q281.4963,1170.875 280.8713,1170.875 Q279.5275,1170.875 278.84,1171.9531 Q278.1525,1173.0156 278.1525,1175.1094 Q278.1525,1177.2031 278.84,1178.2813 Q279.5275,1179.3438 280.8713,1179.3438 Q281.4963,1179.3438 282.09,1179.0781 Q282.6838,1178.7969 283.3088,1178.2188 L283.3088,1180.9375 Z " fill="#000000"/><text fill="#000000" font-family="sans-serif" font-size="14" lengthAdjust="spacing" textLength="41" x="294.34" y="1180.1436">Agent</text><line style="stroke:#181818;stroke-width:0.5;" x1="266.34" x2="337.34" y1="1191.2969" y2="1191.2969"/><line style="stroke:#181818;stroke-width:0.5;" x1="266.34" x2="337.34" y1="1199.2969" y2="1199.2969"/></g><!--MD5=[c90a1e2780ebfe8d08a0c8435da8a54d]
class RAG--><g id="elem_RAG"><rect codeLine="17" fill="#F1F1F1" height="48" id="RAG" rx="2.5" ry="2.5" style="stroke:#181818;stroke-width:0.5;" width="62" x="373.84" y="1159.2969"/><ellipse cx="388.84" cy="1175.2969" fill="#ADD1B2" rx="11" ry="11" style="stroke:#181818;stroke-width:1.0;"/><path d="M391.8088,1180.9375 Q391.2306,1181.2344 390.59,1181.375 Q389.9494,1181.5313 389.2463,1181.5313 Q386.7463,1181.5313 385.4181,1179.8906 Q384.1056,1178.2344 384.1056,1175.1094 Q384.1056,1171.9844 385.4181,1170.3281 Q386.7463,1168.6719 389.2463,1168.6719 Q389.9494,1168.6719 390.59,1168.8281 Q391.2463,1168.9844 391.8088,1169.2813 L391.8088,1172 Q391.1838,1171.4219 390.59,1171.1563 Q389.9963,1170.875 389.3713,1170.875 Q388.0275,1170.875 387.34,1171.9531 Q386.6525,1173.0156 386.6525,1175.1094 Q386.6525,1177.2031 387.34,1178.2813 Q388.0275,1179.3438 389.3713,1179.3438 Q389.9963,1179.3438 390.59,1179.0781 Q391.1838,1178.7969 391.8088,1178.2188 L391.8088,1180.9375 Z " fill="#000000"/><text fill="#000000" font-family="sans-serif" font-size="14" lengthAdjust="spacing" textLength="30" x="402.84" y="1180.1436">RAG</text><line style="stroke:#181818;stroke-width:0.5;" x1="374.84" x2="434.84" y1="1191.2969" y2="1191.2969"/><line style="stroke:#181818;stroke-width:0.5;" x1="374.84" x2="434.84" y1="1199.2969" y2="1199.2969"/></g><!--MD5=[20058e219a14d6a6e135282842ecdc50]
class LessonMaster--><g id="elem_LessonMaster"><rect codeLine="18" fill="#F1F1F1" height="48" id="LessonMaster" rx="2.5" ry="2.5" style="stroke:#181818;stroke-width:0.5;" width="129" x="471.34" y="1159.2969"/><ellipse cx="486.34" cy="1175.2969" fill="#ADD1B2" rx="11" ry="11" style="stroke:#181818;stroke-width:1.0;"/><path d="M489.3088,1180.9375 Q488.7306,1181.2344 488.09,1181.375 Q487.4494,1181.5313 486.7463,1181.5313 Q484.2463,1181.5313 482.9181,1179.8906 Q481.6056,1178.2344 481.6056,1175.1094 Q481.6056,1171.9844 482.9181,1170.3281 Q484.2463,1168.6719 486.7463,1168.6719 Q487.4494,1168.6719 488.09,1168.8281 Q488.7463,1168.9844 489.3088,1169.2813 L489.3088,1172 Q488.6838,1171.4219 488.09,1171.1563 Q487.4963,1170.875 486.8713,1170.875 Q485.5275,1170.875 484.84,1171.9531 Q484.1525,1173.0156 484.1525,1175.1094 Q484.1525,1177.2031 484.84,1178.2813 Q485.5275,1179.3438 486.8713,1179.3438 Q487.4963,1179.3438 488.09,1179.0781 Q488.6838,1178.7969 489.3088,1178.2188 L489.3088,1180.9375 Z " fill="#000000"/><text fill="#000000" font-family="sans-serif" font-size="14" lengthAdjust="spacing" textLength="97" x="500.34" y="1180.1436">LessonMaster</text><line style="stroke:#181818;stroke-width:0.5;" x1="472.34" x2="599.34" y1="1191.2969" y2="1191.2969"/><line style="stroke:#181818;stroke-width:0.5;" x1="472.34" x2="599.34" y1="1199.2969" y2="1199.2969"/></g><!--MD5=[187dfaf184f9660d7adf1febf058e911]
class LessonController--><g id="elem_LessonController"><rect codeLine="22" fill="#F1F1F1" height="48" id="LessonController" rx="2.5" ry="2.5" style="stroke:#181818;stroke-width:0.5;" width="149" x="492.34" y="603.2969"/><ellipse cx="507.34" cy="619.2969" fill="#ADD1B2" rx="11" ry="11" style="stroke:#181818;stroke-width:1.0;"/><path d="M510.3088,624.9375 Q509.7306,625.2344 509.09,625.375 Q508.4494,625.5313 507.7463,625.5313 Q505.2463,625.5313 503.9181,623.8906 Q502.6056,622.2344 502.6056,619.1094 Q502.6056,615.9844 503.9181,614.3281 Q505.2463,612.6719 507.7463,612.6719 Q508.4494,612.6719 509.09,612.8281 Q509.7463,612.9844 510.3088,613.2813 L510.3088,616 Q509.6838,615.4219 509.09,615.1563 Q508.4963,614.875 507.8713,614.875 Q506.5275,614.875 505.84,615.9531 Q505.1525,617.0156 505.1525,619.1094 Q505.1525,621.2031 505.84,622.2813 Q506.5275,623.3438 507.8713,623.3438 Q508.4963,623.3438 509.09,623.0781 Q509.6838,622.7969 510.3088,622.2188 L510.3088,624.9375 Z " fill="#000000"/><text fill="#000000" font-family="sans-serif" font-size="14" lengthAdjust="spacing" textLength="117" x="521.34" y="624.1436">LessonController</text><line style="stroke:#181818;stroke-width:0.5;" x1="493.34" x2="640.34" y1="635.2969" y2="635.2969"/><line style="stroke:#181818;stroke-width:0.5;" x1="493.34" x2="640.34" y1="643.2969" y2="643.2969"/></g><!--MD5=[53c6add6d081a181c3dded327b28122d]
class LessonService--><g id="elem_LessonService"><rect codeLine="23" fill="#F1F1F1" height="48" id="LessonService" rx="2.5" ry="2.5" style="stroke:#181818;stroke-width:0.5;" width="132" x="496.84" y="742.2969"/><ellipse cx="511.84" cy="758.2969" fill="#ADD1B2" rx="11" ry="11" style="stroke:#181818;stroke-width:1.0;"/><path d="M514.8088,763.9375 Q514.2306,764.2344 513.59,764.375 Q512.9494,764.5313 512.2463,764.5313 Q509.7463,764.5313 508.4181,762.8906 Q507.1056,761.2344 507.1056,758.1094 Q507.1056,754.9844 508.4181,753.3281 Q509.7463,751.6719 512.2463,751.6719 Q512.9494,751.6719 513.59,751.8281 Q514.2463,751.9844 514.8088,752.2813 L514.8088,755 Q514.1838,754.4219 513.59,754.1563 Q512.9963,753.875 512.3713,753.875 Q511.0275,753.875 510.34,754.9531 Q509.6525,756.0156 509.6525,758.1094 Q509.6525,760.2031 510.34,761.2813 Q511.0275,762.3438 512.3713,762.3438 Q512.9963,762.3438 513.59,762.0781 Q514.1838,761.7969 514.8088,761.2188 L514.8088,763.9375 Z " fill="#000000"/><text fill="#000000" font-family="sans-serif" font-size="14" lengthAdjust="spacing" textLength="100" x="525.84" y="763.1436">LessonService</text><line style="stroke:#181818;stroke-width:0.5;" x1="497.84" x2="627.84" y1="774.2969" y2="774.2969"/><line style="stroke:#181818;stroke-width:0.5;" x1="497.84" x2="627.84" y1="782.2969" y2="782.2969"/></g><!--MD5=[9878be2e161685c2af42b541dee0842e]
class AuthController--><g id="elem_AuthController"><rect codeLine="27" fill="#F1F1F1" height="48" id="AuthController" rx="2.5" ry="2.5" style="stroke:#181818;stroke-width:0.5;" width="131" x="1072.34" y="603.2969"/><ellipse cx="1087.34" cy="619.2969" fill="#ADD1B2" rx="11" ry="11" style="stroke:#181818;stroke-width:1.0;"/><path d="M1090.3088,624.9375 Q1089.7306,625.2344 1089.09,625.375 Q1088.4494,625.5313 1087.7463,625.5313 Q1085.2463,625.5313 1083.9181,623.8906 Q1082.6056,622.2344 1082.6056,619.1094 Q1082.6056,615.9844 1083.9181,614.3281 Q1085.2463,612.6719 1087.7463,612.6719 Q1088.4494,612.6719 1089.09,612.8281 Q1089.7463,612.9844 1090.3088,613.2813 L1090.3088,616 Q1089.6838,615.4219 1089.09,615.1563 Q1088.4963,614.875 1087.8713,614.875 Q1086.5275,614.875 1085.84,615.9531 Q1085.1525,617.0156 1085.1525,619.1094 Q1085.1525,621.2031 1085.84,622.2813 Q1086.5275,623.3438 1087.8713,623.3438 Q1088.4963,623.3438 1089.09,623.0781 Q1089.6838,622.7969 1090.3088,622.2188 L1090.3088,624.9375 Z " fill="#000000"/><text fill="#000000" font-family="sans-serif" font-size="14" lengthAdjust="spacing" textLength="99" x="1101.34" y="624.1436">AuthController</text><line style="stroke:#181818;stroke-width:0.5;" x1="1073.34" x2="1202.34" y1="635.2969" y2="635.2969"/><line style="stroke:#181818;stroke-width:0.5;" x1="1073.34" x2="1202.34" y1="643.2969" y2="643.2969"/></g><!--MD5=[b4f586f7c628b5a371c8c0ac9af5f898]
class AuthService--><g id="elem_AuthService"><rect codeLine="28" fill="#F1F1F1" height="48" id="AuthService" rx="2.5" ry="2.5" style="stroke:#181818;stroke-width:0.5;" width="114" x="1080.84" y="742.2969"/><ellipse cx="1095.84" cy="758.2969" fill="#ADD1B2" rx="11" ry="11" style="stroke:#181818;stroke-width:1.0;"/><path d="M1098.8088,763.9375 Q1098.2306,764.2344 1097.59,764.375 Q1096.9494,764.5313 1096.2463,764.5313 Q1093.7463,764.5313 1092.4181,762.8906 Q1091.1056,761.2344 1091.1056,758.1094 Q1091.1056,754.9844 1092.4181,753.3281 Q1093.7463,751.6719 1096.2463,751.6719 Q1096.9494,751.6719 1097.59,751.8281 Q1098.2463,751.9844 1098.8088,752.2813 L1098.8088,755 Q1098.1838,754.4219 1097.59,754.1563 Q1096.9963,753.875 1096.3713,753.875 Q1095.0275,753.875 1094.34,754.9531 Q1093.6525,756.0156 1093.6525,758.1094 Q1093.6525,760.2031 1094.34,761.2813 Q1095.0275,762.3438 1096.3713,762.3438 Q1096.9963,762.3438 1097.59,762.0781 Q1098.1838,761.7969 1098.8088,761.2188 L1098.8088,763.9375 Z " fill="#000000"/><text fill="#000000" font-family="sans-serif" font-size="14" lengthAdjust="spacing" textLength="82" x="1109.84" y="763.1436">AuthService</text><line style="stroke:#181818;stroke-width:0.5;" x1="1081.84" x2="1193.84" y1="774.2969" y2="774.2969"/><line style="stroke:#181818;stroke-width:0.5;" x1="1081.84" x2="1193.84" y1="782.2969" y2="782.2969"/></g><!--MD5=[e4ac4745f81aec2db60ad4ddae80b659]
class UserService--><g id="elem_UserService"><rect codeLine="29" fill="#F1F1F1" height="48" id="UserService" rx="2.5" ry="2.5" style="stroke:#181818;stroke-width:0.5;" width="114" x="1080.84" y="892.2969"/><ellipse cx="1095.84" cy="908.2969" fill="#ADD1B2" rx="11" ry="11" style="stroke:#181818;stroke-width:1.0;"/><path d="M1098.8088,913.9375 Q1098.2306,914.2344 1097.59,914.375 Q1096.9494,914.5313 1096.2463,914.5313 Q1093.7463,914.5313 1092.4181,912.8906 Q1091.1056,911.2344 1091.1056,908.1094 Q1091.1056,904.9844 1092.4181,903.3281 Q1093.7463,901.6719 1096.2463,901.6719 Q1096.9494,901.6719 1097.59,901.8281 Q1098.2463,901.9844 1098.8088,902.2813 L1098.8088,905 Q1098.1838,904.4219 1097.59,904.1563 Q1096.9963,903.875 1096.3713,903.875 Q1095.0275,903.875 1094.34,904.9531 Q1093.6525,906.0156 1093.6525,908.1094 Q1093.6525,910.2031 1094.34,911.2813 Q1095.0275,912.3438 1096.3713,912.3438 Q1096.9963,912.3438 1097.59,912.0781 Q1098.1838,911.7969 1098.8088,911.2188 L1098.8088,913.9375 Z " fill="#000000"/><text fill="#000000" font-family="sans-serif" font-size="14" lengthAdjust="spacing" textLength="82" x="1109.84" y="913.1436">UserService</text><line style="stroke:#181818;stroke-width:0.5;" x1="1081.84" x2="1193.84" y1="924.2969" y2="924.2969"/><line style="stroke:#181818;stroke-width:0.5;" x1="1081.84" x2="1193.84" y1="932.2969" y2="932.2969"/></g><!--MD5=[77688e44e194426d521287ac03cad0f3]
entity LawLifeKnowledgeBase--><g id="elem_LawLifeKnowledgeBase"><path d="M399.84,1306.2969 L440.84,1306.2969 A3.75,3.75 0 0 1 443.34,1308.7969 L450.34,1327.2969 L585.84,1327.2969 A2.5,2.5 0 0 1 588.34,1329.7969 L588.34,1358.0938 A2.5,2.5 0 0 1 585.84,1360.5938 L399.84,1360.5938 A2.5,2.5 0 0 1 397.34,1358.0938 L397.34,1308.7969 A2.5,2.5 0 0 1 399.84,1306.2969 " fill="#F1F1F1" style="stroke:#181818;stroke-width:0.5;"/><line style="stroke:#181818;stroke-width:0.5;" x1="397.34" x2="450.34" y1="1327.2969" y2="1327.2969"/><text fill="#000000" font-family="sans-serif" font-size="14" lengthAdjust="spacing" textLength="161" x="407.34" y="1347.292">LawLifeKnowledgeBase</text></g><!--MD5=[c6d75e1f281dcda73d475e041e015273]
entity TrajectoryLibrary--><g id="elem_TrajectoryLibrary"><path d="M222.34,1306.2969 L263.34,1306.2969 A3.75,3.75 0 0 1 265.84,1308.7969 L272.84,1327.2969 L359.34,1327.2969 A2.5,2.5 0 0 1 361.84,1329.7969 L361.84,1358.0938 A2.5,2.5 0 0 1 359.34,1360.5938 L222.34,1360.5938 A2.5,2.5 0 0 1 219.84,1358.0938 L219.84,1308.7969 A2.5,2.5 0 0 1 222.34,1306.2969 " fill="#F1F1F1" style="stroke:#181818;stroke-width:0.5;"/><line style="stroke:#181818;stroke-width:0.5;" x1="219.84" x2="272.84" y1="1327.2969" y2="1327.2969"/><text fill="#000000" font-family="sans-serif" font-size="14" lengthAdjust="spacing" textLength="112" x="229.84" y="1347.292">TrajectoryLibrary</text></g><!--MD5=[a208a1947dae456ffa42b3f3f5ab1004]
entity CurriculumJson--><g id="elem_CurriculumJson"><path d="M333.84,889.2969 L374.84,889.2969 A3.75,3.75 0 0 1 377.34,891.7969 L384.34,910.2969 L461.84,910.2969 A2.5,2.5 0 0 1 464.34,912.7969 L464.34,941.0938 A2.5,2.5 0 0 1 461.84,943.5938 L333.84,943.5938 A2.5,2.5 0 0 1 331.34,941.0938 L331.34,891.7969 A2.5,2.5 0 0 1 333.84,889.2969 " fill="#F1F1F1" style="stroke:#181818;stroke-width:0.5;"/><line style="stroke:#181818;stroke-width:0.5;" x1="331.34" x2="384.34" y1="910.2969" y2="910.2969"/><text fill="#000000" font-family="sans-serif" font-size="14" lengthAdjust="spacing" textLength="103" x="341.34" y="930.292">CurriculumJson</text></g><!--MD5=[feb5939ce823acf5a8245c3205b3c7a1]
entity Users--><g id="elem_Users"><path d="M1105.34,1042.2969 L1146.34,1042.2969 A3.75,3.75 0 0 1 1148.84,1044.7969 L1155.84,1063.2969 L1170.34,1063.2969 A2.5,2.5 0 0 1 1172.84,1065.7969 L1172.84,1094.0938 A2.5,2.5 0 0 1 1170.34,1096.5938 L1105.34,1096.5938 A2.5,2.5 0 0 1 1102.84,1094.0938 L1102.84,1044.7969 A2.5,2.5 0 0 1 1105.34,1042.2969 " fill="#F1F1F1" style="stroke:#181818;stroke-width:0.5;"/><line style="stroke:#181818;stroke-width:0.5;" x1="1102.84" x2="1155.84" y1="1063.2969" y2="1063.2969"/><text fill="#000000" font-family="sans-serif" font-size="14" lengthAdjust="spacing" textLength="40" x="1112.84" y="1083.292">Users</text></g><!--MD5=[a598cd9647d609c975cf8985588a9049]
link ChatController to ChatService--><g id="link_ChatController_ChatService"><path codeLine="49" d="M564.89,318.5169 C563.52,334.7769 561.68,356.6169 560.23,373.9169 " fill="none" id="ChatController-to-ChatService" style="stroke:#181818;stroke-width:1.0;"/><polygon fill="#181818" points="559.79,379.1269,564.5215,370.489,560.204,374.144,556.549,369.8265,559.79,379.1269" style="stroke:#181818;stroke-width:1.0;"/></g><!--MD5=[60929d451ee8fbc6a492341bcd8346d1]
link AuthController to AuthService--><g id="link_AuthController_AuthService"><path codeLine="50" d="M1137.84,651.5369 C1137.84,675.0569 1137.84,711.4569 1137.84,736.7269 " fill="none" id="AuthController-to-AuthService" style="stroke:#181818;stroke-width:1.0;"/><polygon fill="#181818" points="1137.84,741.9469,1141.84,732.9469,1137.84,736.9469,1133.84,732.9469,1137.84,741.9469" style="stroke:#181818;stroke-width:1.0;"/></g><!--MD5=[33198f4478ada270ac42e99ac4131538]
link GateAuthController to GateAuthService--><g id="link_GateAuthController_GateAuthService"><path codeLine="51" d="M751.58,318.5169 C752.79,334.7769 754.42,356.6169 755.72,373.9169 " fill="none" id="GateAuthController-to-GateAuthService" style="stroke:#181818;stroke-width:1.0;"/><polygon fill="#181818" points="756.11,379.1269,759.4303,369.8546,755.7385,374.1407,751.4524,370.4489,756.11,379.1269" style="stroke:#181818;stroke-width:1.0;"/></g><!--MD5=[3b84de5b0c7da42aab304dd9edee7f78]
link AuthService to UserService--><g id="link_AuthService_UserService"><path codeLine="52" d="M1137.84,790.4169 C1137.84,816.4469 1137.84,858.7369 1137.84,886.7769 " fill="none" id="AuthService-to-UserService" style="stroke:#181818;stroke-width:1.0;"/><polygon fill="#181818" points="1137.84,891.8469,1141.84,882.8469,1137.84,886.8469,1133.84,882.8469,1137.84,891.8469" style="stroke:#181818;stroke-width:1.0;"/></g><!--MD5=[24d51aab6949caea42da2da73ab96537]
link LessonController to LessonService--><g id="link_LessonController_LessonService"><path codeLine="53" d="M566.16,651.5369 C565.47,675.0569 564.41,711.4569 563.67,736.7269 " fill="none" id="LessonController-to-LessonService" style="stroke:#181818;stroke-width:1.0;"/><polygon fill="#181818" points="563.52,741.9469,567.7754,733.0648,563.6628,736.9489,559.7787,732.8363,563.52,741.9469" style="stroke:#181818;stroke-width:1.0;"/></g><!--MD5=[ffd44a94e9e9e76359810a21855a45d7]
link LessonService to CurriculumJson--><g id="link_LessonService_CurriculumJson"><path codeLine="54" d="M537.06,790.4169 C508.4,816.1269 462.06,857.6969 430.79,885.7469 " fill="none" id="LessonService-to-CurriculumJson" style="stroke:#181818;stroke-width:1.0;"/><polygon fill="#181818" points="427.05,889.0969,436.4277,886.0872,430.7799,885.7671,431.1001,880.1193,427.05,889.0969" style="stroke:#181818;stroke-width:1.0;"/></g><!--MD5=[b38ed6bf1a32550f0d56ec54c5842f2c]
link Client to ChatController--><g id="link_Client_ChatController"><path codeLine="57" d="M536.33,71.0769 C438.79,72.7069 129.65,83.6869 71.84,157.2969 C6,241.1469 103.89,198.1669 198.84,219.2969 C304.28,242.7569 427.45,266.8569 501.19,280.9369 " fill="none" id="Client-ChatController" style="stroke:#181818;stroke-width:1.0;"/><text fill="#000000" font-family="sans-serif" font-size="13" lengthAdjust="spacing" textLength="94" x="79.84" y="177.3638">POST /chat/law</text><path d="M543.5182,78.0288 A10,10 0 0 0 543.2819 63.8886" fill="none" style="stroke:#181818;stroke-width:1.5;"/><ellipse cx="536.33" cy="71.0769" fill="#FFFFFF" rx="6" ry="6" style="stroke:#181818;stroke-width:1.5;"/></g><!--MD5=[b38ed6bf1a32550f0d56ec54c5842f2c]
link Client to ChatController--><g id="link_Client_ChatController"><path codeLine="58" d="M536.3,74.4069 C464.99,83.7969 286.75,111.4769 251.84,157.2969 C183.26,247.3269 389.99,278.6369 501.15,288.7869 " fill="none" id="Client-ChatController-1" style="stroke:#181818;stroke-width:1.0;"/><text fill="#000000" font-family="sans-serif" font-size="13" lengthAdjust="spacing" textLength="124" x="259.84" y="177.3638">POST /chat/german</text><path d="M544.2337,80.4943 A10,10 0 0 0 542.3874 66.4732" fill="none" style="stroke:#181818;stroke-width:1.5;"/><ellipse cx="536.3" cy="74.4069" fill="#FFFFFF" rx="6" ry="6" style="stroke:#181818;stroke-width:1.5;"/></g><!--MD5=[b38ed6bf1a32550f0d56ec54c5842f2c]
link Client to ChatController--><g id="link_Client_ChatController"><path codeLine="59" d="M536.03,85.2469 C499.21,105.2969 443.54,144.1269 461.84,188.2969 C476.05,222.5969 507.49,251.5269 532.29,270.2869 " fill="none" id="Client-ChatController-2" style="stroke:#181818;stroke-width:1.0;"/><text fill="#000000" font-family="sans-serif" font-size="13" lengthAdjust="spacing" textLength="177" x="469.84" y="177.3638">POST /chat/submit_answers</text><path d="M493.5177,225.1284 A10,10 0 0 0 483.1027 234.6954" fill="none" style="stroke:#181818;stroke-width:1.5;"/><ellipse cx="493.0938" cy="235.1194" fill="#FFFFFF" rx="6" ry="6" style="stroke:#181818;stroke-width:1.5;"/></g><!--MD5=[b38ed6bf1a32550f0d56ec54c5842f2c]
link Client to ChatController--><g id="link_Client_ChatController"><path codeLine="60" d="M595.48,88.6369 C617.54,103.7969 645.98,127.7869 658.84,157.2969 C677.57,200.2869 634.24,244.1869 600.87,270.0669 " fill="none" id="Client-ChatController-3" style="stroke:#181818;stroke-width:1.0;"/><text fill="#000000" font-family="sans-serif" font-size="13" lengthAdjust="spacing" textLength="106" x="670.84" y="177.3638">GET /chat/lesson</text><path d="M662.4974,147.9897 A10,10 0 0 0 649.5328 153.6395" fill="none" style="stroke:#181818;stroke-width:1.5;"/><ellipse cx="658.84" cy="157.2969" fill="#FFFFFF" rx="6" ry="6" style="stroke:#181818;stroke-width:1.5;"/></g><!--MD5=[b38ed6bf1a32550f0d56ec54c5842f2c]
link Client to ChatController--><g id="link_Client_ChatController"><path codeLine="61" d="M595.45,72.0169 C645.98,75.8769 747.73,91.8369 792.84,157.2969 C800.66,168.6469 801.19,177.3369 792.84,188.2969 C773,214.3169 680.06,212.5669 650.84,227.2969 C628.65,238.4869 606.67,256.0469 590.77,270.2369 " fill="none" id="Client-ChatController-4" style="stroke:#181818;stroke-width:1.0;"/><text fill="#000000" font-family="sans-serif" font-size="13" lengthAdjust="spacing" textLength="99" x="806.84" y="177.3638">GET /chat/tasks</text><path d="M660.3372,230.428 A10,10 0 0 0 653.9711 217.7997" fill="none" style="stroke:#181818;stroke-width:1.5;"/><ellipse cx="650.84" cy="227.2969" fill="#FFFFFF" rx="6" ry="6" style="stroke:#181818;stroke-width:1.5;"/></g><!--MD5=[ef880508ea6288da10ce5a175aa23a09]
link Client to GateAuthController--><g id="link_Client_GateAuthController"><path codeLine="62" d="M595.5,73.4069 C673.5,80.9269 881.16,105.5469 921.84,157.2969 C959.37,205.0269 883.36,246.0769 820.73,270.2369 " fill="none" id="Client-GateAuthController" style="stroke:#181818;stroke-width:1.0;"/><text fill="#000000" font-family="sans-serif" font-size="13" lengthAdjust="spacing" textLength="71" x="938.84" y="177.3638">POST /auth</text><path d="M767.1436,90.4281 A10,10 0 0 0 764.3275 104.287" fill="none" style="stroke:#181818;stroke-width:1.5;"/><ellipse cx="772.665" cy="98.7656" fill="#FFFFFF" rx="6" ry="6" style="stroke:#181818;stroke-width:1.5;"/></g><!--MD5=[00cf2bb4de6f85ac171b3b30a1f1802d]
link ChatService to FlaskApp--><g id="link_ChatService_FlaskApp"><path codeLine="65" d="M500.55,403.7069 C367.7,403.8669 49.84,413.7669 49.84,504.7969 C49.84,504.7969 49.84,504.7969 49.84,917.2969 C49.84,1049.5769 261.13,1067.6269 357.7,1068.9669 " fill="none" id="ChatService-FlaskApp" style="stroke:#181818;stroke-width:1.0;"/><text fill="#000000" font-family="sans-serif" font-size="13" lengthAdjust="spacing" textLength="172" x="57.84" y="701.3638">POST /get_answer_german</text><path d="M507.6296,410.7694 A10,10 0 0 0 507.6125 396.6273" fill="none" style="stroke:#181818;stroke-width:1.5;"/><ellipse cx="500.55" cy="403.7069" fill="#FFFFFF" rx="6" ry="6" style="stroke:#181818;stroke-width:1.5;"/></g><!--MD5=[00cf2bb4de6f85ac171b3b30a1f1802d]
link ChatService to FlaskApp--><g id="link_ChatService_FlaskApp"><path codeLine="66" d="M500.5,412.9669 C418.58,426.9969 277.84,457.9269 277.84,504.7969 C277.84,504.7969 277.84,504.7969 277.84,917.2969 C277.84,973.1369 329.33,1019.0769 366.74,1045.0969 " fill="none" id="ChatService-FlaskApp-1" style="stroke:#181818;stroke-width:1.0;"/><text fill="#000000" font-family="sans-serif" font-size="13" lengthAdjust="spacing" textLength="167" x="285.84" y="701.3638">POST /get_answer_law_life</text><path d="M284.9111,549.2883 A10,10 0 0 0 270.7689 549.2883" fill="none" style="stroke:#181818;stroke-width:1.5;"/><ellipse cx="277.84" cy="556.3594" fill="#FFFFFF" rx="6" ry="6" style="stroke:#181818;stroke-width:1.5;"/></g><!--MD5=[71b5933d486c6fbbbab8b90c96d7d62e]
link GateAuthService to AuthController--><g id="link_GateAuthService_AuthController"><path codeLine="68" d="M804.94,427.3069 C838.5,444.0369 884.45,467.6369 923.84,490.2969 C988.71,527.6169 1061.79,575.3469 1103.58,603.1969 " fill="none" id="GateAuthService-AuthController" style="stroke:#181818;stroke-width:1.0;"/><text fill="#000000" font-family="sans-serif" font-size="13" lengthAdjust="spacing" textLength="105" x="982.84" y="510.3638">POST /auth/login</text><path d="M921.2367,480.6417 A10,10 0 0 0 914.1848 492.9001" fill="none" style="stroke:#181818;stroke-width:1.5;"/><ellipse cx="923.84" cy="490.2969" fill="#FFFFFF" rx="6" ry="6" style="stroke:#181818;stroke-width:1.5;"/></g><!--MD5=[71b5933d486c6fbbbab8b90c96d7d62e]
link GateAuthService to AuthController--><g id="link_GateAuthService_AuthController"><path codeLine="69" d="M831.42,413.6269 C921.26,426.4869 1065.96,452.4669 1103.84,490.2969 C1133.98,520.3969 1138.8,572.8969 1138.83,603.1069 " fill="none" id="GateAuthService-AuthController-1" style="stroke:#181818;stroke-width:1.0;"/><text fill="#000000" font-family="sans-serif" font-size="13" lengthAdjust="spacing" textLength="124" x="1131.84" y="510.3638">POST /auth/register</text><path d="M981.9385,434.0422 A10,10 0 0 0 978.5591 447.7746" fill="none" style="stroke:#181818;stroke-width:1.5;"/><ellipse cx="987.115" cy="442.5981" fill="#FFFFFF" rx="6" ry="6" style="stroke:#181818;stroke-width:1.5;"/></g><!--MD5=[70bcad71c3576837eaf3a75a3c11be38]
link LessonService to FlaskApp--><g id="link_LessonService_FlaskApp"><path codeLine="71" d="M555.54,790.3669 C543,828.5369 515.35,906.6169 480.84,967.2969 C464.68,995.7169 441.58,1025.2669 425.1,1045.0069 " fill="none" id="LessonService-FlaskApp" style="stroke:#181818;stroke-width:1.0;"/><text fill="#000000" font-family="sans-serif" font-size="13" lengthAdjust="spacing" textLength="143" x="547.84" y="920.8638">POST /get_lesson_text</text><path d="M490.4822,964.646 A10,10 0 0 0 478.1891 957.6546" fill="none" style="stroke:#181818;stroke-width:1.5;"/><ellipse cx="480.84" cy="967.2969" fill="#FFFFFF" rx="6" ry="6" style="stroke:#181818;stroke-width:1.5;"/></g><!--MD5=[70bcad71c3576837eaf3a75a3c11be38]
link LessonService to FlaskApp--><g id="link_LessonService_FlaskApp"><path codeLine="72" d="M629.05,779.7869 C658.09,788.9169 689.47,804.5769 706.84,831.2969 C739.78,881.9769 742.16,918.2469 706.84,967.2969 C648.29,1048.6169 521.26,1065.4169 452.07,1068.2869 " fill="none" id="LessonService-FlaskApp-1" style="stroke:#181818;stroke-width:1.0;"/><text fill="#000000" font-family="sans-serif" font-size="13" lengthAdjust="spacing" textLength="169" x="739.84" y="920.8638">GET /get_lesson_exercises</text><path d="M592.2864,1051.8829 A10,10 0 0 0 588.1173 1038.3692" fill="none" style="stroke:#181818;stroke-width:1.5;"/><ellipse cx="583.445" cy="1047.2106" fill="#FFFFFF" rx="6" ry="6" style="stroke:#181818;stroke-width:1.5;"/></g><!--MD5=[ccd0b53920038f16cca58b96665c8315]
link FlaskApp to Agent--><g id="link_FlaskApp_Agent"><path codeLine="75" d="M383.5,1093.5069 C366.93,1111.5269 343.92,1136.5369 326.55,1155.4269 " fill="none" id="FlaskApp-to-Agent" style="stroke:#181818;stroke-width:1.0;"/><polygon fill="#181818" points="323.15,1159.1169,332.1843,1155.1949,326.5325,1155.4347,326.2927,1149.7829,323.15,1159.1169" style="stroke:#181818;stroke-width:1.0;"/></g><!--MD5=[adbef9377482cfc4fdcd730fa11fff31]
link FlaskApp to RAG--><g id="link_FlaskApp_RAG"><path codeLine="76" d="M404.84,1093.5069 C404.84,1111.0769 404.84,1135.2969 404.84,1153.9969 " fill="none" id="FlaskApp-to-RAG" style="stroke:#181818;stroke-width:1.0;"/><polygon fill="#181818" points="404.84,1159.1169,408.84,1150.1169,404.84,1154.1169,400.84,1150.1169,404.84,1159.1169" style="stroke:#181818;stroke-width:1.0;"/></g><!--MD5=[aa04bf49ee65400b828bc5bc34fea1e9]
link FlaskApp to LessonMaster--><g id="link_FlaskApp_LessonMaster"><path codeLine="77" d="M431.98,1093.5069 C453.15,1111.5969 482.56,1136.7469 504.69,1155.6669 " fill="none" id="FlaskApp-to-LessonMaster" style="stroke:#181818;stroke-width:1.0;"/><polygon fill="#181818" points="508.73,1159.1169,504.4999,1150.2227,504.9337,1155.8629,499.2935,1156.2968,508.73,1159.1169" style="stroke:#181818;stroke-width:1.0;"/></g><!--MD5=[e2f74b82c7c579b848b132fbe2c1f1b8]
link ChatService to LessonController--><g id="link_ChatService_LessonController"><path codeLine="80" d="M500.64,418.6069 C442.3,436.3069 364.14,470.4569 392.84,521.2969 C415.04,560.6269 458.54,586.8769 496.49,603.2969 " fill="none" id="ChatService-LessonController" style="stroke:#181818;stroke-width:1.0;"/><text fill="#000000" font-family="sans-serif" font-size="13" lengthAdjust="spacing" textLength="106" x="400.84" y="510.3638">GET /lesson/next</text><path d="M437.253,561.0021 A10,10 0 0 0 428.8728 572.3939" fill="none" style="stroke:#181818;stroke-width:1.5;"/><ellipse cx="438.7587" cy="570.8881" fill="#FFFFFF" rx="6" ry="6" style="stroke:#181818;stroke-width:1.5;"/></g><!--MD5=[e2f74b82c7c579b848b132fbe2c1f1b8]
link ChatService to LessonController--><g id="link_ChatService_LessonController"><path codeLine="81" d="M558.79,427.6369 C560.52,470.3869 564.18,560.7569 565.91,603.2669 " fill="none" id="ChatService-LessonController-1" style="stroke:#181818;stroke-width:1.0;"/><text fill="#000000" font-family="sans-serif" font-size="13" lengthAdjust="spacing" textLength="112" x="569.84" y="510.3638">GET /lesson/tasks</text><path d="M569.1289,508.1903 A10,10 0 0 0 554.9984 508.7629" fill="none" style="stroke:#181818;stroke-width:1.5;"/><ellipse cx="562.35" cy="515.5419" fill="#FFFFFF" rx="6" ry="6" style="stroke:#181818;stroke-width:1.5;"/></g><!--MD5=[e2f74b82c7c579b848b132fbe2c1f1b8]
link ChatService to LessonController--><g id="link_ChatService_LessonController"><path codeLine="82" d="M615.19,423.7169 C645.56,437.2669 680.16,458.6769 697.84,490.2969 C723.68,536.5069 664.79,578.5369 617.78,603.2769 " fill="none" id="ChatService-LessonController-2" style="stroke:#181818;stroke-width:1.0;"/><text fill="#000000" font-family="sans-serif" font-size="13" lengthAdjust="spacing" textLength="196" x="711.84" y="510.3638">POST /lesson/process_answers</text><path d="M659.8624,440.3307 A10,10 0 0 0 651.3739 451.642" fill="none" style="stroke:#181818;stroke-width:1.5;"/><ellipse cx="661.2738" cy="450.2306" fill="#FFFFFF" rx="6" ry="6" style="stroke:#181818;stroke-width:1.5;"/></g><!--MD5=[c64aaaf1759139255b6f978a1b767ec8]
link Agent to TrajectoryLibrary--><g id="link_Agent_TrajectoryLibrary"><path codeLine="85" d="M300.12,1207.4169 C298.25,1232.6069 295.25,1273.0169 293.16,1301.0169 " fill="none" id="Agent-to-TrajectoryLibrary" style="stroke:#181818;stroke-width:1.0;"/><polygon fill="#181818" points="292.79,1306.0969,297.4476,1297.4189,293.1615,1301.1107,289.4697,1296.8246,292.79,1306.0969" style="stroke:#181818;stroke-width:1.0;"/></g><!--MD5=[f69f7321ac5f04d69f5e7ca61f3962b6]
link RAG to LawLifeKnowledgeBase--><g id="link_RAG_LawLifeKnowledgeBase"><path codeLine="86" d="M418.59,1207.4169 C433.69,1232.8069 457.99,1273.6869 474.65,1301.7069 " fill="none" id="RAG-to-LawLifeKnowledgeBase" style="stroke:#181818;stroke-width:1.0;"/><polygon fill="#181818" points="477.26,1306.0969,476.0978,1296.3168,474.7043,1301.7994,469.2218,1300.4059,477.26,1306.0969" style="stroke:#181818;stroke-width:1.0;"/></g><!--MD5=[69e6289ac8e02a0ee38715584b895bda]
link UserService to Users--><g id="link_UserService_Users"><path codeLine="89" d="M1137.84,940.5569 C1137.84,966.4169 1137.84,1008.3069 1137.84,1037.0169 " fill="none" id="UserService-to-Users" style="stroke:#181818;stroke-width:1.0;"/><polygon fill="#181818" points="1137.84,1042.2169,1141.84,1033.2169,1137.84,1037.2169,1133.84,1033.2169,1137.84,1042.2169" style="stroke:#181818;stroke-width:1.0;"/></g><!--MD5=[e66edd712d0b992ede1547199e4227c0]
@startuml
!define RECTANGLE class

title Backend Architecture 

package "Client" {}

package "API Gateway" {
    RECTANGLE ChatController
    RECTANGLE ChatService
    RECTANGLE GateAuthController
    RECTANGLE GateAuthService
}

package "Agent Service" {
    RECTANGLE FlaskApp
    RECTANGLE Agent
    RECTANGLE RAG
    RECTANGLE LessonMaster
}

package "Curriculum Service" {
    RECTANGLE LessonController
    RECTANGLE LessonService
}

package "User Service" {
    RECTANGLE AuthController
    RECTANGLE AuthService
    RECTANGLE UserService
}

database "MilvusVectorStore" {
  folder "LawLifeKnowledgeBase" {
 }
 folder "TrajectoryLibrary" {
 }
}

database "Curriculum" {
    folder "CurriculumJson" {
    }
}

database "User" {
    folder "Users" {
    }
}

ChatController - -> ChatService
AuthController - -> AuthService
GateAuthController - -> GateAuthService
AuthService - -> UserService
LessonController - -> LessonService
LessonService - -> CurriculumJson

' API Gateway connections
Client - -(0- ChatController : POST /chat/law
Client - -(0- ChatController: POST /chat/german
Client - -(0- ChatController: POST /chat/submit_answers
Client - -(0- ChatController: GET /chat/lesson
Client - -(0- ChatController: GET /chat/tasks
Client - -(0- GateAuthController: POST /auth

  
ChatService - -(0- FlaskApp  : POST /get_answer_german
ChatService - -(0- FlaskApp : POST /get_answer_law_life

GateAuthService- -(0- AuthController : POST /auth/login
GateAuthService -(0- AuthController : POST /auth/register 
  
LessonService - -(0- FlaskApp : POST /get_lesson_text
LessonService - -(0- FlaskApp : GET /get_lesson_exercises

' Agent Service connections
FlaskApp - -> Agent
FlaskApp - -> RAG
FlaskApp - -> LessonMaster

' Curriculum Service connections
ChatService - -(0- LessonController : GET /lesson/next
ChatService - -(0- LessonController: GET /lesson/tasks
ChatService - -(0- LessonController : POST /lesson/process_answers

' MilvusVectorStore connections
Agent - -> TrajectoryLibrary
RAG - -> LawLifeKnowledgeBase

'Auth User connections
UserService - -> Users
@enduml

@startuml

title Backend Architecture 

package "Client" {}

package "API Gateway" {
    class ChatController
    class ChatService
    class GateAuthController
    class GateAuthService
}

package "Agent Service" {
    class FlaskApp
    class Agent
    class RAG
    class LessonMaster
}

package "Curriculum Service" {
    class LessonController
    class LessonService
}

package "User Service" {
    class AuthController
    class AuthService
    class UserService
}

database "MilvusVectorStore" {
  folder "LawLifeKnowledgeBase" {
 }
 folder "TrajectoryLibrary" {
 }
}

database "Curriculum" {
    folder "CurriculumJson" {
    }
}

database "User" {
    folder "Users" {
    }
}

ChatController - -> ChatService
AuthController - -> AuthService
GateAuthController - -> GateAuthService
AuthService - -> UserService
LessonController - -> LessonService
LessonService - -> CurriculumJson

Client - -(0- ChatController : POST /chat/law
Client - -(0- ChatController: POST /chat/german
Client - -(0- ChatController: POST /chat/submit_answers
Client - -(0- ChatController: GET /chat/lesson
Client - -(0- ChatController: GET /chat/tasks
Client - -(0- GateAuthController: POST /auth

  
ChatService - -(0- FlaskApp  : POST /get_answer_german
ChatService - -(0- FlaskApp : POST /get_answer_law_life

GateAuthService- -(0- AuthController : POST /auth/login
GateAuthService -(0- AuthController : POST /auth/register 
  
LessonService - -(0- FlaskApp : POST /get_lesson_text
LessonService - -(0- FlaskApp : GET /get_lesson_exercises

FlaskApp - -> Agent
FlaskApp - -> RAG
FlaskApp - -> LessonMaster

ChatService - -(0- LessonController : GET /lesson/next
ChatService - -(0- LessonController: GET /lesson/tasks
ChatService - -(0- LessonController : POST /lesson/process_answers

Agent - -> TrajectoryLibrary
RAG - -> LawLifeKnowledgeBase

UserService - -> Users
@enduml

PlantUML version 1.2022.7(Mon Aug 22 17:01:30 UTC 2022)
(GPL source distribution)
Java Runtime: OpenJDK Runtime Environment
JVM: OpenJDK 64-Bit Server VM
Default Encoding: UTF-8
Language: en
Country: null
--></g></svg>