<svg xmlns="http://www.w3.org/2000/svg" xmlns:xlink="http://www.w3.org/1999/xlink" contentStyleType="text/css" height="452px" preserveAspectRatio="none" style="width:698px;height:452px;background:#FFFFFF;" version="1.1" viewBox="0 0 698 452" width="698px" zoomAndPan="magnify"><defs/><g><text fill="#000000" font-family="sans-serif" font-size="14" font-weight="bold" lengthAdjust="spacing" textLength="224.8271" x="238.4143" y="27.9951">Q/A RAG: Sequence Diagram</text><line style="stroke:#181818;stroke-width:0.5;stroke-dasharray:5.0,5.0;" x1="50" x2="50" y1="118.5938" y2="371.6563"/><line style="stroke:#181818;stroke-width:0.5;stroke-dasharray:5.0,5.0;" x1="219.7505" x2="219.7505" y1="118.5938" y2="371.6563"/><line style="stroke:#181818;stroke-width:0.5;stroke-dasharray:5.0,5.0;" x1="367.7979" x2="367.7979" y1="118.5938" y2="371.6563"/><line style="stroke:#181818;stroke-width:0.5;stroke-dasharray:5.0,5.0;" x1="589.4438" x2="589.4438" y1="118.5938" y2="371.6563"/><line style="stroke:#181818;stroke-width:0.5;stroke-dasharray:5.0,5.0;" x1="659.1226" x2="659.1226" y1="118.5938" y2="371.6563"/><text fill="#000000" font-family="sans-serif" font-size="14" lengthAdjust="spacing" textLength="84.1982" x="5" y="115.292">ApiGateway</text><ellipse cx="50.0991" cy="50.7969" fill="#E2E2F0" rx="8" ry="8" style="stroke:#181818;stroke-width:0.5;"/><path d="M50.0991,58.7969 L50.0991,85.7969 M37.0991,66.7969 L63.0991,66.7969 M50.0991,85.7969 L37.0991,100.7969 M50.0991,85.7969 L63.0991,100.7969 " fill="none" style="stroke:#181818;stroke-width:0.5;"/><text fill="#000000" font-family="sans-serif" font-size="14" lengthAdjust="spacing" textLength="84.1982" x="5" y="383.6514">ApiGateway</text><ellipse cx="50.0991" cy="395.4531" fill="#E2E2F0" rx="8" ry="8" style="stroke:#181818;stroke-width:0.5;"/><path d="M50.0991,403.4531 L50.0991,430.4531 M37.0991,411.4531 L63.0991,411.4531 M50.0991,430.4531 L37.0991,445.4531 M50.0991,430.4531 L63.0991,445.4531 " fill="none" style="stroke:#181818;stroke-width:0.5;"/><rect fill="#E2E2F0" height="30.2969" rx="2.5" ry="2.5" style="stroke:#181818;stroke-width:0.5;" width="77.2734" x="181.7505" y="87.2969"/><text fill="#000000" font-family="sans-serif" font-size="14" lengthAdjust="spacing" textLength="63.2734" x="188.7505" y="107.292">FlaskApp</text><rect fill="#E2E2F0" height="30.2969" rx="2.5" ry="2.5" style="stroke:#181818;stroke-width:0.5;" width="77.2734" x="181.7505" y="370.6563"/><text fill="#000000" font-family="sans-serif" font-size="14" lengthAdjust="spacing" textLength="63.2734" x="188.7505" y="390.6514">FlaskApp</text><rect fill="#E2E2F0" height="30.2969" rx="2.5" ry="2.5" style="stroke:#181818;stroke-width:0.5;" width="44.1533" x="345.7979" y="87.2969"/><text fill="#000000" font-family="sans-serif" font-size="14" lengthAdjust="spacing" textLength="30.1533" x="352.7979" y="107.292">RAG</text><rect fill="#E2E2F0" height="30.2969" rx="2.5" ry="2.5" style="stroke:#181818;stroke-width:0.5;" width="44.1533" x="345.7979" y="370.6563"/><text fill="#000000" font-family="sans-serif" font-size="14" lengthAdjust="spacing" textLength="30.1533" x="352.7979" y="390.6514">RAG</text><rect fill="#E2E2F0" height="30.2969" rx="2.5" ry="2.5" style="stroke:#181818;stroke-width:0.5;" width="41.6787" x="569.4438" y="87.2969"/><text fill="#000000" font-family="sans-serif" font-size="14" lengthAdjust="spacing" textLength="27.6787" x="576.4438" y="107.292">LLM</text><rect fill="#E2E2F0" height="30.2969" rx="2.5" ry="2.5" style="stroke:#181818;stroke-width:0.5;" width="41.6787" x="569.4438" y="370.6563"/><text fill="#000000" font-family="sans-serif" font-size="14" lengthAdjust="spacing" textLength="27.6787" x="576.4438" y="390.6514">LLM</text><text fill="#000000" font-family="sans-serif" font-size="14" lengthAdjust="spacing" textLength="70.5332" x="621.1226" y="115.292">Vector DB</text><path d="M641.3892,66.2969 C641.3892,56.2969 659.3892,56.2969 659.3892,56.2969 C659.3892,56.2969 677.3892,56.2969 677.3892,66.2969 L677.3892,92.2969 C677.3892,102.2969 659.3892,102.2969 659.3892,102.2969 C659.3892,102.2969 641.3892,102.2969 641.3892,92.2969 L641.3892,66.2969 " fill="#E2E2F0" style="stroke:#181818;stroke-width:1.5;"/><path d="M641.3892,66.2969 C641.3892,76.2969 659.3892,76.2969 659.3892,76.2969 C659.3892,76.2969 677.3892,76.2969 677.3892,66.2969 " fill="none" style="stroke:#181818;stroke-width:1.5;"/><text fill="#000000" font-family="sans-serif" font-size="14" lengthAdjust="spacing" textLength="70.5332" x="621.1226" y="383.6514">Vector DB</text><path d="M641.3892,396.9531 C641.3892,386.9531 659.3892,386.9531 659.3892,386.9531 C659.3892,386.9531 677.3892,386.9531 677.3892,396.9531 L677.3892,422.9531 C677.3892,432.9531 659.3892,432.9531 659.3892,432.9531 C659.3892,432.9531 641.3892,432.9531 641.3892,422.9531 L641.3892,396.9531 " fill="#E2E2F0" style="stroke:#181818;stroke-width:1.5;"/><path d="M641.3892,396.9531 C641.3892,406.9531 659.3892,406.9531 659.3892,406.9531 C659.3892,406.9531 677.3892,406.9531 677.3892,396.9531 " fill="none" style="stroke:#181818;stroke-width:1.5;"/><polygon fill="#181818" points="208.3872,145.7266,218.3872,149.7266,208.3872,153.7266,212.3872,149.7266" style="stroke:#181818;stroke-width:1.0;"/><line style="stroke:#181818;stroke-width:1.0;" x1="50.0991" x2="214.3872" y1="149.7266" y2="149.7266"/><text fill="#000000" font-family="sans-serif" font-size="13" lengthAdjust="spacing" textLength="146.2881" x="57.0991" y="144.6606">POST /get_answer_law</text><polygon fill="#181818" points="355.8745,174.8594,365.8745,178.8594,355.8745,182.8594,359.8745,178.8594" style="stroke:#181818;stroke-width:1.0;"/><line style="stroke:#181818;stroke-width:1.0;" x1="220.3872" x2="361.8745" y1="178.8594" y2="178.8594"/><text fill="#000000" font-family="sans-serif" font-size="13" lengthAdjust="spacing" textLength="69.4941" x="227.3872" y="173.7935">run(query)</text><polygon fill="#181818" points="647.3892,203.9922,657.3892,207.9922,647.3892,211.9922,651.3892,207.9922" style="stroke:#181818;stroke-width:1.0;"/><line style="stroke:#181818;stroke-width:1.0;" x1="367.8745" x2="653.3892" y1="207.9922" y2="207.9922"/><text fill="#000000" font-family="sans-serif" font-size="13" lengthAdjust="spacing" textLength="135.3828" x="374.8745" y="202.9263">retrieve_docs(query)</text><polygon fill="#181818" points="378.8745,233.125,368.8745,237.125,378.8745,241.125,374.8745,237.125" style="stroke:#181818;stroke-width:1.0;"/><line style="stroke:#181818;stroke-width:1.0;" x1="372.8745" x2="658.3892" y1="237.125" y2="237.125"/><text fill="#000000" font-family="sans-serif" font-size="13" lengthAdjust="spacing" textLength="124.9219" x="384.8745" y="232.0591">return related docs</text><polygon fill="#181818" points="578.2832,262.2578,588.2832,266.2578,578.2832,270.2578,582.2832,266.2578" style="stroke:#181818;stroke-width:1.0;"/><line style="stroke:#181818;stroke-width:1.0;" x1="367.8745" x2="584.2832" y1="266.2578" y2="266.2578"/><text fill="#000000" font-family="sans-serif" font-size="13" lengthAdjust="spacing" textLength="198.4087" x="374.8745" y="261.1919">generate_answer(query, docs)</text><polygon fill="#181818" points="378.8745,291.3906,368.8745,295.3906,378.8745,299.3906,374.8745,295.3906" style="stroke:#181818;stroke-width:1.0;"/><line style="stroke:#181818;stroke-width:1.0;" x1="372.8745" x2="589.2832" y1="295.3906" y2="295.3906"/><text fill="#000000" font-family="sans-serif" font-size="13" lengthAdjust="spacing" textLength="123.4873" x="384.8745" y="290.3247">return final answer</text><polygon fill="#181818" points="231.3872,320.5234,221.3872,324.5234,231.3872,328.5234,227.3872,324.5234" style="stroke:#181818;stroke-width:1.0;"/><line style="stroke:#181818;stroke-width:1.0;" x1="225.3872" x2="366.8745" y1="324.5234" y2="324.5234"/><text fill="#000000" font-family="sans-serif" font-size="13" lengthAdjust="spacing" textLength="123.4873" x="237.3872" y="319.4575">return final answer</text><polygon fill="#181818" points="61.0991,349.6563,51.0991,353.6563,61.0991,357.6563,57.0991,353.6563" style="stroke:#181818;stroke-width:1.0;"/><line style="stroke:#181818;stroke-width:1.0;" x1="55.0991" x2="219.3872" y1="353.6563" y2="353.6563"/><text fill="#000000" font-family="sans-serif" font-size="13" lengthAdjust="spacing" textLength="123.4873" x="67.0991" y="348.5903">return final answer</text><!--SRC=[ROz1QyCm38Nl-XKYfnOsUizXa63QIyUwjEmQj4GBPfxhsSv2__qKUrq9z6JplgVtf9EEXl5rKs5JxKeyylV8jcDKcWPFNm3KnRF7okaTHPxe0k38HzrfHpPYiJKKFYld2gI0M_aiiOGcqYpb_VuvoV92Jv7UAJ0MRvowL9sOgW5kjVZubE9BFBmSJxWPEBPamyI-DJJ1Z6PBKw8VxKgEy9SrDBEaQj4uUiq_tFRdBbofggyJ74TlvJ7IrUFioQEoNea3M_O2_khoz4DohK4Sov0FRSbWjkQGlFKz_B_rxSoxnby0]--></g></svg>