<svg xmlns="http://www.w3.org/2000/svg" xmlns:xlink="http://www.w3.org/1999/xlink" contentStyleType="text/css" height="820px" preserveAspectRatio="none" style="width:1159px;height:820px;background:#FFFFFF;" version="1.1" viewBox="0 0 1159 820" width="1159px" zoomAndPan="magnify"><defs/><g><text fill="#000000" font-family="sans-serif" font-size="14" font-weight="bold" lengthAdjust="spacing" textLength="273.3418" x="442.2542" y="27.9951">Lesson Master: Sequence Diagram</text><rect fill="none" height="237.8672" style="stroke:#000000;stroke-width:1.5;" width="552.5742" x="493.8413" y="193.8594"/><rect fill="none" height="75.3984" style="stroke:#000000;stroke-width:1.5;" width="532.5742" x="503.8413" y="349.3281"/><line style="stroke:#181818;stroke-width:0.5;stroke-dasharray:5.0,5.0;" x1="72" x2="72" y1="118.5938" y2="740.0547"/><line style="stroke:#181818;stroke-width:0.5;stroke-dasharray:5.0,5.0;" x1="275.5542" x2="275.5542" y1="118.5938" y2="740.0547"/><line style="stroke:#181818;stroke-width:0.5;stroke-dasharray:5.0,5.0;" x1="570.8413" x2="570.8413" y1="118.5938" y2="740.0547"/><line style="stroke:#181818;stroke-width:0.5;stroke-dasharray:5.0,5.0;" x1="844.0854" x2="844.0854" y1="118.5938" y2="740.0547"/><line style="stroke:#181818;stroke-width:0.5;stroke-dasharray:5.0,5.0;" x1="972.7183" x2="972.7183" y1="118.5938" y2="740.0547"/><line style="stroke:#181818;stroke-width:0.5;stroke-dasharray:5.0,5.0;" x1="1094.4155" x2="1094.4155" y1="118.5938" y2="740.0547"/><text fill="#000000" font-family="sans-serif" font-size="14" lengthAdjust="spacing" textLength="128.7617" x="5" y="115.292">CurriculumService</text><ellipse cx="72.3809" cy="50.7969" fill="#E2E2F0" rx="8" ry="8" style="stroke:#181818;stroke-width:0.5;"/><path d="M72.3809,58.7969 L72.3809,85.7969 M59.3809,66.7969 L85.3809,66.7969 M72.3809,85.7969 L59.3809,100.7969 M72.3809,85.7969 L85.3809,100.7969 " fill="none" style="stroke:#181818;stroke-width:0.5;"/><text fill="#000000" font-family="sans-serif" font-size="14" lengthAdjust="spacing" textLength="128.7617" x="5" y="752.0498">CurriculumService</text><ellipse cx="72.3809" cy="763.8516" fill="#E2E2F0" rx="8" ry="8" style="stroke:#181818;stroke-width:0.5;"/><path d="M72.3809,771.8516 L72.3809,798.8516 M59.3809,779.8516 L85.3809,779.8516 M72.3809,798.8516 L59.3809,813.8516 M72.3809,798.8516 L85.3809,813.8516 " fill="none" style="stroke:#181818;stroke-width:0.5;"/><rect fill="#E2E2F0" height="30.2969" rx="2.5" ry="2.5" style="stroke:#181818;stroke-width:0.5;" width="77.2734" x="237.5542" y="87.2969"/><text fill="#000000" font-family="sans-serif" font-size="14" lengthAdjust="spacing" textLength="63.2734" x="244.5542" y="107.292">FlaskApp</text><rect fill="#E2E2F0" height="30.2969" rx="2.5" ry="2.5" style="stroke:#181818;stroke-width:0.5;" width="77.2734" x="237.5542" y="739.0547"/><text fill="#000000" font-family="sans-serif" font-size="14" lengthAdjust="spacing" textLength="63.2734" x="244.5542" y="759.0498">FlaskApp</text><rect fill="#E2E2F0" height="30.2969" rx="2.5" ry="2.5" style="stroke:#181818;stroke-width:0.5;" width="114.7002" x="513.8413" y="87.2969"/><text fill="#000000" font-family="sans-serif" font-size="14" lengthAdjust="spacing" textLength="100.7002" x="520.8413" y="107.292">Lesson Master</text><rect fill="#E2E2F0" height="30.2969" rx="2.5" ry="2.5" style="stroke:#181818;stroke-width:0.5;" width="114.7002" x="513.8413" y="739.0547"/><text fill="#000000" font-family="sans-serif" font-size="14" lengthAdjust="spacing" textLength="100.7002" x="520.8413" y="759.0498">Lesson Master</text><rect fill="#E2E2F0" height="30.2969" rx="2.5" ry="2.5" style="stroke:#181818;stroke-width:0.5;" width="131.6328" x="779.0854" y="87.2969"/><text fill="#000000" font-family="sans-serif" font-size="14" lengthAdjust="spacing" textLength="117.6328" x="786.0854" y="107.292">Lesson Retriever</text><rect fill="#E2E2F0" height="30.2969" rx="2.5" ry="2.5" style="stroke:#181818;stroke-width:0.5;" width="131.6328" x="779.0854" y="739.0547"/><text fill="#000000" font-family="sans-serif" font-size="14" lengthAdjust="spacing" textLength="117.6328" x="786.0854" y="759.0498">Lesson Retriever</text><rect fill="#E2E2F0" height="30.2969" rx="2.5" ry="2.5" style="stroke:#181818;stroke-width:0.5;" width="105.6973" x="920.7183" y="87.2969"/><text fill="#000000" font-family="sans-serif" font-size="14" lengthAdjust="spacing" textLength="91.6973" x="927.7183" y="107.292">ToolExecutor</text><rect fill="#E2E2F0" height="30.2969" rx="2.5" ry="2.5" style="stroke:#181818;stroke-width:0.5;" width="105.6973" x="920.7183" y="739.0547"/><text fill="#000000" font-family="sans-serif" font-size="14" lengthAdjust="spacing" textLength="91.6973" x="927.7183" y="759.0498">ToolExecutor</text><rect fill="#E2E2F0" height="30.2969" rx="2.5" ry="2.5" style="stroke:#181818;stroke-width:0.5;" width="117.4346" x="1036.4155" y="87.2969"/><text fill="#000000" font-family="sans-serif" font-size="14" lengthAdjust="spacing" textLength="103.4346" x="1043.4155" y="107.292">ExerciseParser</text><rect fill="#E2E2F0" height="30.2969" rx="2.5" ry="2.5" style="stroke:#181818;stroke-width:0.5;" width="117.4346" x="1036.4155" y="739.0547"/><text fill="#000000" font-family="sans-serif" font-size="14" lengthAdjust="spacing" textLength="103.4346" x="1043.4155" y="759.0498">ExerciseParser</text><polygon fill="#181818" points="264.1909,145.7266,274.1909,149.7266,264.1909,153.7266,268.1909,149.7266" style="stroke:#181818;stroke-width:1.0;"/><line style="stroke:#181818;stroke-width:1.0;" x1="72.3809" x2="270.1909" y1="149.7266" y2="149.7266"/><text fill="#000000" font-family="sans-serif" font-size="13" lengthAdjust="spacing" textLength="144.3584" x="79.3809" y="144.6606">POST /get_lesson_text</text><polygon fill="#181818" points="559.1914,174.8594,569.1914,178.8594,559.1914,182.8594,563.1914,178.8594" style="stroke:#181818;stroke-width:1.0;"/><line style="stroke:#181818;stroke-width:1.0;" x1="276.1909" x2="565.1914" y1="178.8594" y2="178.8594"/><text fill="#000000" font-family="sans-serif" font-size="13" lengthAdjust="spacing" textLength="254.4268" x="283.1909" y="173.7935">createLesson(lessonTopic, lessonType)</text><path d="M493.8413,193.8594 L558.2842,193.8594 L558.2842,200.9922 L548.2842,210.9922 L493.8413,210.9922 L493.8413,193.8594 " fill="#EEEEEE" style="stroke:#000000;stroke-width:1.5;"/><rect fill="none" height="237.8672" style="stroke:#000000;stroke-width:1.5;" width="552.5742" x="493.8413" y="193.8594"/><text fill="#000000" font-family="sans-serif" font-size="13" font-weight="bold" lengthAdjust="spacing" textLength="19.4429" x="508.8413" y="206.9263">alt</text><text fill="#000000" font-family="sans-serif" font-size="11" font-weight="bold" lengthAdjust="spacing" textLength="154.2471" x="573.2842" y="206.0698">[lessonType is grammar]</text><polygon fill="#181818" points="832.9019,228.125,842.9019,232.125,832.9019,236.125,836.9019,232.125" style="stroke:#181818;stroke-width:1.0;"/><line style="stroke:#181818;stroke-width:1.0;" x1="571.1914" x2="838.9019" y1="232.125" y2="232.125"/><text fill="#000000" font-family="sans-serif" font-size="13" lengthAdjust="spacing" textLength="214.3286" x="578.1914" y="227.0591">retrieveExplanation(lessonTopic)</text><polygon fill="#181818" points="582.1914,257.2578,572.1914,261.2578,582.1914,265.2578,578.1914,261.2578" style="stroke:#181818;stroke-width:1.0;"/><line style="stroke:#181818;stroke-width:1.0;" x1="576.1914" x2="843.9019" y1="261.2578" y2="261.2578"/><text fill="#000000" font-family="sans-serif" font-size="13" lengthAdjust="spacing" textLength="249.7104" x="588.1914" y="256.1919">return lesson as grammar explanation</text><line style="stroke:#000000;stroke-width:1.0;stroke-dasharray:2.0,2.0;" x1="493.8413" x2="1046.4155" y1="270.2578" y2="270.2578"/><text fill="#000000" font-family="sans-serif" font-size="11" font-weight="bold" lengthAdjust="spacing" textLength="178.7231" x="498.8413" y="280.4683">[lessonType is not grammar]</text><polygon fill="#181818" points="961.5669,301.1953,971.5669,305.1953,961.5669,309.1953,965.5669,305.1953" style="stroke:#181818;stroke-width:1.0;"/><line style="stroke:#181818;stroke-width:1.0;" x1="571.1914" x2="967.5669" y1="305.1953" y2="305.1953"/><text fill="#000000" font-family="sans-serif" font-size="13" lengthAdjust="spacing" textLength="262.5137" x="578.1914" y="300.1294">execute(readingGenerator, lessonTopic)</text><polygon fill="#181818" points="582.1914,330.3281,572.1914,334.3281,582.1914,338.3281,578.1914,334.3281" style="stroke:#181818;stroke-width:1.0;"/><line style="stroke:#181818;stroke-width:1.0;" x1="576.1914" x2="972.5669" y1="334.3281" y2="334.3281"/><text fill="#000000" font-family="sans-serif" font-size="13" lengthAdjust="spacing" textLength="188.4302" x="588.1914" y="329.2622">return lesson as reading text</text><path d="M503.8413,349.3281 L568.2842,349.3281 L568.2842,356.4609 L558.2842,366.4609 L503.8413,366.4609 L503.8413,349.3281 " fill="#EEEEEE" style="stroke:#000000;stroke-width:1.5;"/><rect fill="none" height="75.3984" style="stroke:#000000;stroke-width:1.5;" width="532.5742" x="503.8413" y="349.3281"/><text fill="#000000" font-family="sans-serif" font-size="13" font-weight="bold" lengthAdjust="spacing" textLength="19.4429" x="518.8413" y="362.395">alt</text><text fill="#000000" font-family="sans-serif" font-size="11" font-weight="bold" lengthAdjust="spacing" textLength="151.8677" x="583.2842" y="361.5386">[lessonType is listening]</text><polygon fill="#181818" points="961.5669,383.5938,971.5669,387.5938,961.5669,391.5938,965.5669,387.5938" style="stroke:#181818;stroke-width:1.0;"/><line style="stroke:#181818;stroke-width:1.0;" x1="571.1914" x2="967.5669" y1="387.5938" y2="387.5938"/><text fill="#000000" font-family="sans-serif" font-size="13" lengthAdjust="spacing" textLength="251.0117" x="578.1914" y="382.5278">execute(audioGenerator, readingText)</text><polygon fill="#181818" points="582.1914,412.7266,572.1914,416.7266,582.1914,420.7266,578.1914,416.7266" style="stroke:#181818;stroke-width:1.0;"/><line style="stroke:#181818;stroke-width:1.0;" x1="576.1914" x2="972.5669" y1="416.7266" y2="416.7266"/><text fill="#000000" font-family="sans-serif" font-size="13" lengthAdjust="spacing" textLength="168.7017" x="588.1914" y="411.6606">return lesson as audio file</text><polygon fill="#181818" points="287.1909,455.8594,277.1909,459.8594,287.1909,463.8594,283.1909,459.8594" style="stroke:#181818;stroke-width:1.0;"/><line style="stroke:#181818;stroke-width:1.0;" x1="281.1909" x2="570.1914" y1="459.8594" y2="459.8594"/><text fill="#000000" font-family="sans-serif" font-size="13" lengthAdjust="spacing" textLength="85.7441" x="293.1909" y="454.7935">return lesson</text><polygon fill="#181818" points="83.3809,484.9922,73.3809,488.9922,83.3809,492.9922,79.3809,488.9922" style="stroke:#181818;stroke-width:1.0;"/><line style="stroke:#181818;stroke-width:1.0;" x1="77.3809" x2="275.1909" y1="488.9922" y2="488.9922"/><text fill="#000000" font-family="sans-serif" font-size="13" lengthAdjust="spacing" textLength="85.7441" x="89.3809" y="483.9263">return lesson</text><polygon fill="#181818" points="264.1909,514.125,274.1909,518.125,264.1909,522.125,268.1909,518.125" style="stroke:#181818;stroke-width:1.0;"/><line style="stroke:#181818;stroke-width:1.0;" x1="72.3809" x2="270.1909" y1="518.125" y2="518.125"/><text fill="#000000" font-family="sans-serif" font-size="13" lengthAdjust="spacing" textLength="179.8101" x="79.3809" y="513.0591">POST /get_lesson_exercises</text><polygon fill="#181818" points="559.1914,543.2578,569.1914,547.2578,559.1914,551.2578,563.1914,547.2578" style="stroke:#181818;stroke-width:1.0;"/><line style="stroke:#181818;stroke-width:1.0;" x1="276.1909" x2="565.1914" y1="547.2578" y2="547.2578"/><text fill="#000000" font-family="sans-serif" font-size="13" lengthAdjust="spacing" textLength="271.0005" x="283.1909" y="542.1919">createExercises(lessonTopic, lessonType)</text><polygon fill="#181818" points="961.5669,572.3906,971.5669,576.3906,961.5669,580.3906,965.5669,576.3906" style="stroke:#181818;stroke-width:1.0;"/><line style="stroke:#181818;stroke-width:1.0;" x1="571.1914" x2="967.5669" y1="576.3906" y2="576.3906"/><text fill="#000000" font-family="sans-serif" font-size="13" lengthAdjust="spacing" textLength="338.6348" x="578.1914" y="571.3247">execute(exerciseGenerator, lessonTopic, examples)</text><polygon fill="#181818" points="582.1914,601.5234,572.1914,605.5234,582.1914,609.5234,578.1914,605.5234" style="stroke:#181818;stroke-width:1.0;"/><line style="stroke:#181818;stroke-width:1.0;" x1="576.1914" x2="972.5669" y1="605.5234" y2="605.5234"/><text fill="#000000" font-family="sans-serif" font-size="13" lengthAdjust="spacing" textLength="105.7329" x="588.1914" y="600.4575">return exercises</text><polygon fill="#181818" points="1083.1328,630.6563,1093.1328,634.6563,1083.1328,638.6563,1087.1328,634.6563" style="stroke:#181818;stroke-width:1.0;"/><line style="stroke:#181818;stroke-width:1.0;" x1="571.1914" x2="1089.1328" y1="634.6563" y2="634.6563"/><text fill="#000000" font-family="sans-serif" font-size="13" lengthAdjust="spacing" textLength="101.8037" x="578.1914" y="629.5903">parse exercises</text><polygon fill="#181818" points="582.1914,659.7891,572.1914,663.7891,582.1914,667.7891,578.1914,663.7891" style="stroke:#181818;stroke-width:1.0;"/><line style="stroke:#181818;stroke-width:1.0;" x1="576.1914" x2="1094.1328" y1="663.7891" y2="663.7891"/><text fill="#000000" font-family="sans-serif" font-size="13" lengthAdjust="spacing" textLength="154.4512" x="588.1914" y="658.7231">return parsed exercises</text><polygon fill="#181818" points="287.1909,688.9219,277.1909,692.9219,287.1909,696.9219,283.1909,692.9219" style="stroke:#181818;stroke-width:1.0;"/><line style="stroke:#181818;stroke-width:1.0;" x1="281.1909" x2="570.1914" y1="692.9219" y2="692.9219"/><text fill="#000000" font-family="sans-serif" font-size="13" lengthAdjust="spacing" textLength="105.7329" x="293.1909" y="687.856">return exercises</text><polygon fill="#181818" points="83.3809,718.0547,73.3809,722.0547,83.3809,726.0547,79.3809,722.0547" style="stroke:#181818;stroke-width:1.0;"/><line style="stroke:#181818;stroke-width:1.0;" x1="77.3809" x2="275.1909" y1="722.0547" y2="722.0547"/><text fill="#000000" font-family="sans-serif" font-size="13" lengthAdjust="spacing" textLength="105.7329" x="89.3809" y="716.9888">return exercises</text><!--SRC=[bP8zRuCm48Pt_ufJfY2bwivGgMffbqH5n7jqCjV8gZ6kRQBqtzSOI22GIXsGW7lkVU-BIwy8jkHShM67pfDDOK_V3Mb1y2hnQB5Y38MlBRmqrahHgARQapr9GOmPj5uAQL1xMBqfT5_Fngm07Ro5bsbuuXAPxMwHACXRIQS1AgOGhskLdKaqeQG8y6mAXA0Lqb6ErlKQMSxOh7fuU8fLff1_x3ay7iaVLApWuEdiMHjhcUqk1M49FNNrhJk8rqQA3VGVFuOIXigFla4wQCTNeMKGLA9MaOBjsylEHg56BwUIIGiNWt606wjxrRQLNX7ecir8ERenrhMVcVCi3Mdjv6WT-YcbFhwJ9ejXafT6XX9uThU4FXVYb03cNIiPLgm34g9BvjYKiXvPzu8yw2KnvG_pc0kVKb4WIPUiVJgBRfcJZCiIPzk_1Vzr7zIVc5iuak7ytFqxcKza45pUnoPmM9dm9s6pqLnhwMIpF0NJdlueakKtIH4eHyJI2ETTtf_YXVq5]--></g></svg>